<svg xmlns="http://www.w3.org/2000/svg" xmlns:xlink="http://www.w3.org/1999/xlink" contentStyleType="text/css" height="303px" preserveAspectRatio="none" style="width:510px;height:303px;background:#FFFFFF;" version="1.1" viewBox="0 0 510 303" width="510px" zoomAndPan="magnify"><defs/><g><!--class com.spag.lua.LuaNum--><a href="LuaNum.html" target="_top" title="LuaNum.html" xlink:actuate="onRequest" xlink:href="LuaNum.html" xlink:show="new" xlink:title="LuaNum.html" xlink:type="simple"><g id="elem_com.spag.lua.LuaNum"><rect codeLine="7" fill="#F1F1F1" height="168.0156" id="com.spag.lua.LuaNum" rx="2.5" ry="2.5" style="stroke:#181818;stroke-width:0.5;" width="201.4307" x="111" y="110"/><ellipse cx="173.9692" cy="128.9688" fill="#ADD1B2" rx="11" ry="11" style="stroke:#181818;stroke-width:1.0;"/><path d="M176.938,134.6094 Q176.3599,134.9063 175.7192,135.0469 Q175.0786,135.2031 174.3755,135.2031 Q171.8755,135.2031 170.5474,133.5625 Q169.2349,131.9063 169.2349,128.7813 Q169.2349,125.6563 170.5474,124 Q171.8755,122.3438 174.3755,122.3438 Q175.0786,122.3438 175.7192,122.5 Q176.3755,122.6563 176.938,122.9531 L176.938,125.6719 Q176.313,125.0938 175.7192,124.8281 Q175.1255,124.5469 174.5005,124.5469 Q173.1567,124.5469 172.4692,125.625 Q171.7817,126.6875 171.7817,128.7813 Q171.7817,130.875 172.4692,131.9531 Q173.1567,133.0156 174.5005,133.0156 Q175.1255,133.0156 175.7192,132.75 Q176.313,132.4688 176.938,131.8906 L176.938,134.6094 Z " fill="#000000"/><text fill="#000000" font-family="sans-serif" font-size="14" lengthAdjust="spacing" textLength="58.2354" x="198.8477" y="127.9951">LuaNum</text><text fill="#000000" font-family="sans-serif" font-size="10" lengthAdjust="spacing" textLength="66.9922" x="194.4692" y="140.5791">com.spag.lua</text><line style="stroke:#181818;stroke-width:0.5;" x1="112" x2="311.4307" y1="147.9375" y2="147.9375"/><ellipse cx="122" cy="161.5859" fill="none" rx="3" ry="3" style="stroke:#038048;stroke-width:1.0;"/><text fill="#000000" font-family="sans-serif" font-size="14" lengthAdjust="spacing" textLength="126.875" x="131" y="164.9326">value: BigDecimal</text><line style="stroke:#181818;stroke-width:0.5;" x1="112" x2="311.4307" y1="172.2344" y2="172.2344"/><ellipse cx="122" cy="185.8828" fill="#84BE84" rx="3" ry="3" style="stroke:#038048;stroke-width:1.0;"/><text fill="#000000" font-family="sans-serif" font-size="14" lengthAdjust="spacing" text-decoration="underline" textLength="133.6016" x="131" y="189.2295">of(String): LuaNum</text><ellipse cx="122" cy="202.1797" fill="#84BE84" rx="3" ry="3" style="stroke:#038048;stroke-width:1.0;"/><text fill="#000000" font-family="sans-serif" font-size="14" lengthAdjust="spacing" text-decoration="underline" textLength="137.416" x="131" y="205.5264">of(Object): LuaNum</text><ellipse cx="122" cy="218.4766" fill="#84BE84" rx="3" ry="3" style="stroke:#038048;stroke-width:1.0;"/><text fill="#000000" font-family="sans-serif" font-size="14" lengthAdjust="spacing" textLength="137.6074" x="131" y="221.8232">isInteger(): boolean</text><ellipse cx="122" cy="234.7734" fill="#84BE84" rx="3" ry="3" style="stroke:#038048;stroke-width:1.0;"/><text fill="#000000" font-family="sans-serif" font-size="14" lengthAdjust="spacing" textLength="141.7158" x="131" y="238.1201">isPositive(): boolean</text><ellipse cx="122" cy="251.0703" fill="#84BE84" rx="3" ry="3" style="stroke:#038048;stroke-width:1.0;"/><text fill="#000000" font-family="sans-serif" font-size="14" lengthAdjust="spacing" textLength="93.1465" x="131" y="254.417">type(): String</text><ellipse cx="122" cy="267.3672" fill="#84BE84" rx="3" ry="3" style="stroke:#038048;stroke-width:1.0;"/><text fill="#000000" font-family="sans-serif" font-size="14" lengthAdjust="spacing" textLength="175.4307" x="131" y="270.7139">compareTo(LuaNum): int</text></g></a><!--class com.spag.lua.LuaObject--><a href="LuaObject.html" target="_top" title="LuaObject.html" xlink:actuate="onRequest" xlink:href="LuaObject.html" xlink:show="new" xlink:title="LuaObject.html" xlink:type="simple"><g id="elem_com.spag.lua.LuaObject"><rect codeLine="17" fill="#F1F1F1" height="62.2344" id="com.spag.lua.LuaObject" rx="2.5" ry="2.5" style="stroke:#181818;stroke-width:0.5;" width="119.1465" x="6" y="12"/><ellipse cx="28.3345" cy="30.9688" fill="#B4A7E5" rx="11" ry="11" style="stroke:#181818;stroke-width:1.0;"/><path d="M24.2563,26.7344 L24.2563,24.5781 L31.647,24.5781 L31.647,26.7344 L29.1782,26.7344 L29.1782,34.8125 L31.647,34.8125 L31.647,36.9688 L24.2563,36.9688 L24.2563,34.8125 L26.7251,34.8125 L26.7251,26.7344 L24.2563,26.7344 Z " fill="#000000"/><text fill="#000000" font-family="sans-serif" font-size="14" font-style="italic" lengthAdjust="spacing" textLength="70.8477" x="43.9644" y="29.9951">LuaObject</text><text fill="#000000" font-family="sans-serif" font-size="10" font-style="italic" lengthAdjust="spacing" textLength="66.9922" x="45.8921" y="42.5791">com.spag.lua</text><line style="stroke:#181818;stroke-width:0.5;" x1="7" x2="124.1465" y1="49.9375" y2="49.9375"/><ellipse cx="17" cy="63.5859" fill="#84BE84" rx="3" ry="3" style="stroke:#038048;stroke-width:1.0;"/><text fill="#000000" font-family="sans-serif" font-size="14" font-style="italic" lengthAdjust="spacing" textLength="93.1465" x="26" y="66.9326">type(): String</text></g></a><!--class com.spag.lua.LuaConcatable--><a href="LuaConcatable.html" target="_top" title="LuaConcatable.html" xlink:actuate="onRequest" xlink:href="LuaConcatable.html" xlink:show="new" xlink:title="LuaConcatable.html" xlink:type="simple"><g id="elem_com.spag.lua.LuaConcatable"><rect codeLine="20" fill="#F1F1F1" height="37.9375" id="com.spag.lua.LuaConcatable" rx="2.5" ry="2.5" style="stroke:#181818;stroke-width:0.5;" width="136.2002" x="143.5" y="24"/><ellipse cx="158.5" cy="42.9688" fill="#B4A7E5" rx="11" ry="11" style="stroke:#181818;stroke-width:1.0;"/><path d="M154.4219,38.7344 L154.4219,36.5781 L161.8125,36.5781 L161.8125,38.7344 L159.3438,38.7344 L159.3438,46.8125 L161.8125,46.8125 L161.8125,48.9688 L154.4219,48.9688 L154.4219,46.8125 L156.8906,46.8125 L156.8906,38.7344 L154.4219,38.7344 Z " fill="#000000"/><text fill="#000000" font-family="sans-serif" font-size="14" font-style="italic" lengthAdjust="spacing" textLength="104.2002" x="172.5" y="41.9951">LuaConcatable</text><text fill="#000000" font-family="sans-serif" font-size="10" font-style="italic" lengthAdjust="spacing" textLength="66.9922" x="191.104" y="54.5791">com.spag.lua</text></g></a><!--class java.lang.Comparable--><g id="elem_java.lang.Comparable"><rect codeLine="21" fill="#F1F1F1" height="62.2344" id="java.lang.Comparable" rx="2.5" ry="2.5" style="stroke:#181818;stroke-width:0.5;" width="201.4307" x="298" y="12"/><ellipse cx="326.6556" cy="30.9688" fill="#B4A7E5" rx="11" ry="11" style="stroke:#181818;stroke-width:1.0;"/><path d="M322.5774,26.7344 L322.5774,24.5781 L329.9681,24.5781 L329.9681,26.7344 L327.4993,26.7344 L327.4993,34.8125 L329.9681,34.8125 L329.9681,36.9688 L322.5774,36.9688 L322.5774,34.8125 L325.0462,34.8125 L325.0462,26.7344 L322.5774,26.7344 Z " fill="#000000"/><text fill="#000000" font-family="sans-serif" font-size="14" font-style="italic" lengthAdjust="spacing" textLength="85.1689" x="343.6901" y="29.9951">Comparable</text><text fill="#000000" font-family="sans-serif" font-size="10" font-style="italic" lengthAdjust="spacing" textLength="45.7227" x="363.4133" y="42.5791">java.lang</text><rect fill="#FFFFFF" height="15.9688" style="stroke:#181818;stroke-width:1.0;stroke-dasharray:2.0,2.0;" width="51.916" x="450.5146" y="9"/><text fill="#000000" font-family="sans-serif" font-size="12" font-style="italic" lengthAdjust="spacing" textLength="49.916" x="451.5146" y="21.1387">LuaNum</text><line style="stroke:#181818;stroke-width:0.5;" x1="299" x2="498.4307" y1="49.9375" y2="49.9375"/><ellipse cx="309" cy="63.5859" fill="#84BE84" rx="3" ry="3" style="stroke:#038048;stroke-width:1.0;"/><text fill="#000000" font-family="sans-serif" font-size="14" font-style="italic" lengthAdjust="spacing" textLength="175.4307" x="318" y="66.9326">compareTo(LuaNum): int</text></g><polygon fill="none" points="95.0453,74.1524,103.3575,91.2083,111.9287,82.8098,95.0453,74.1524" style="stroke:#181818;stroke-width:1.0;"/><path d="M107.6431,87.0091 C117.9752,97.5535 117.5355,97.1047 130.0291,109.8551 " fill="none" style="stroke:#181818;stroke-width:1.0;stroke-dasharray:7.0,7.0;"/><polygon fill="none" points="211.5,62.2703,205.5,80.2703,217.5,80.2703,211.5,62.2703" style="stroke:#181818;stroke-width:1.0;"/><path d="M211.5,80.2703 C211.5,92.6261 211.5,91.9153 211.5,109.8822 " fill="none" style="stroke:#181818;stroke-width:1.0;stroke-dasharray:7.0,7.0;"/><polygon fill="none" points="360.6578,74.1524,342.8411,80.6768,350.3191,90.0619,360.6578,74.1524" style="stroke:#181818;stroke-width:1.0;"/><path d="M346.5801,85.3693 C332.386,96.6791 329.5789,98.9157 312.3593,112.6362 " fill="none" style="stroke:#181818;stroke-width:1.0;stroke-dasharray:7.0,7.0;"/><text fill="#888888" font-family="sans-serif" font-size="10" lengthAdjust="spacing" textLength="3.1787" x="247.4106" y="281.2822">&#160;</text><text fill="#888888" font-family="sans-serif" font-size="10" lengthAdjust="spacing" textLength="183.0908" x="157.4546" y="292.9229">UMLDoclet 2.2.0, PlantUML 1.2024.6</text><!--SRC=[bLDDQm8n4BtxAwP2GR44Aps9UAXU2hOLR4_gOOpZ6iacosPMiDR_thWHjRegxcKpxyt7cvTT08279CKeHj2uiXc3YudHOAdaAN34O30cbw2a0IMO8jiKZ3MKytCr9Q0uuHNC5EcfEqLzixdrS8vBZSv1kUNK3pMVNzgz33-oU6HsGBqjRIpyg4Ze3Ck03eu14T9XE0m7CUTOZyUmpdjldzeITKPDU5LHbwIAKU-fjMDa9JTGixFAW5DbeceJGgFYfC_9WYIV9zMKUpDC4QKLJqwirOJccErRfrWjgP3cLP8JGS81zujwS-dBLi8udw8Cv_mccET3IcV-6luR66JUus6e23Q6yxcJQvmuJb7ofb3ovfgYZZKI6IUQxb5rg0hA3l5EtSMHdTowataBNABGQA9ys3uIX-HMCBfzOUlR5tB1rzQl44NVRM7DqTPNwueMk369jbR1pDhjQsI-ttjTAxN_dnkY8UfFqFVjsAFmkAJKAMigrJy0]--></g></svg>