<svg xmlns="http://www.w3.org/2000/svg" xmlns:xlink="http://www.w3.org/1999/xlink" contentStyleType="text/css" height="238px" preserveAspectRatio="none" style="width:286px;height:238px;background:#FFFFFF;" version="1.1" viewBox="0 0 286 238" width="286px" zoomAndPan="magnify"><defs/><g><!--class com.spag.lua.LuaNum--><a href="LuaNum.html" target="_top" title="LuaNum.html" xlink:actuate="onRequest" xlink:href="LuaNum.html" xlink:show="new" xlink:title="LuaNum.html" xlink:type="simple"><g id="elem_com.spag.lua.LuaNum"><rect codeLine="7" fill="#F1F1F1" height="102.8281" id="com.spag.lua.LuaNum" rx="2.5" ry="2.5" style="stroke:#181818;stroke-width:0.5;" width="159.6016" x="58.5" y="110"/><ellipse cx="100.7742" cy="128.9688" fill="#ADD1B2" rx="11" ry="11" style="stroke:#181818;stroke-width:1.0;"/><path d="M103.743,134.6094 Q103.1648,134.9063 102.5242,135.0469 Q101.8836,135.2031 101.1805,135.2031 Q98.6805,135.2031 97.3523,133.5625 Q96.0398,131.9063 96.0398,128.7813 Q96.0398,125.6563 97.3523,124 Q98.6805,122.3438 101.1805,122.3438 Q101.8836,122.3438 102.5242,122.5 Q103.1805,122.6563 103.743,122.9531 L103.743,125.6719 Q103.118,125.0938 102.5242,124.8281 Q101.9305,124.5469 101.3055,124.5469 Q99.9617,124.5469 99.2742,125.625 Q98.5867,126.6875 98.5867,128.7813 Q98.5867,130.875 99.2742,131.9531 Q99.9617,133.0156 101.3055,133.0156 Q101.9305,133.0156 102.5242,132.75 Q103.118,132.4688 103.743,131.8906 L103.743,134.6094 Z " fill="#000000"/><text fill="#000000" font-family="sans-serif" font-size="14" lengthAdjust="spacing" textLength="58.2354" x="125.2136" y="127.9951">LuaNum</text><text fill="#000000" font-family="sans-serif" font-size="10" lengthAdjust="spacing" textLength="66.9922" x="120.8352" y="140.5791">com.spag.lua</text><line style="stroke:#181818;stroke-width:0.5;" x1="59.5" x2="217.1016" y1="147.9375" y2="147.9375"/><ellipse cx="69.5" cy="161.5859" fill="none" rx="3" ry="3" style="stroke:#038048;stroke-width:1.0;"/><text fill="#000000" font-family="sans-serif" font-size="14" lengthAdjust="spacing" textLength="126.875" x="78.5" y="164.9326">value: BigDecimal</text><line style="stroke:#181818;stroke-width:0.5;" x1="59.5" x2="217.1016" y1="172.2344" y2="172.2344"/><ellipse cx="69.5" cy="185.8828" fill="#84BE84" rx="3" ry="3" style="stroke:#038048;stroke-width:1.0;"/><text fill="#000000" font-family="sans-serif" font-size="14" lengthAdjust="spacing" text-decoration="underline" textLength="133.6016" x="78.5" y="189.2295">of(String): LuaNum</text><ellipse cx="69.5" cy="202.1797" fill="#84BE84" rx="3" ry="3" style="stroke:#038048;stroke-width:1.0;"/><text fill="#000000" font-family="sans-serif" font-size="14" lengthAdjust="spacing" textLength="93.1465" x="78.5" y="205.5264">type(): String</text></g></a><!--class com.spag.lua.LuaObject--><a href="LuaObject.html" target="_top" title="LuaObject.html" xlink:actuate="onRequest" xlink:href="LuaObject.html" xlink:show="new" xlink:title="LuaObject.html" xlink:type="simple"><g id="elem_com.spag.lua.LuaObject"><rect codeLine="13" fill="#F1F1F1" height="62.2344" id="com.spag.lua.LuaObject" rx="2.5" ry="2.5" style="stroke:#181818;stroke-width:0.5;" width="119.1465" x="6" y="12"/><ellipse cx="28.3345" cy="30.9688" fill="#B4A7E5" rx="11" ry="11" style="stroke:#181818;stroke-width:1.0;"/><path d="M24.2563,26.7344 L24.2563,24.5781 L31.647,24.5781 L31.647,26.7344 L29.1782,26.7344 L29.1782,34.8125 L31.647,34.8125 L31.647,36.9688 L24.2563,36.9688 L24.2563,34.8125 L26.7251,34.8125 L26.7251,26.7344 L24.2563,26.7344 Z " fill="#000000"/><text fill="#000000" font-family="sans-serif" font-size="14" font-style="italic" lengthAdjust="spacing" textLength="70.8477" x="43.9644" y="29.9951">LuaObject</text><text fill="#000000" font-family="sans-serif" font-size="10" font-style="italic" lengthAdjust="spacing" textLength="66.9922" x="45.8921" y="42.5791">com.spag.lua</text><line style="stroke:#181818;stroke-width:0.5;" x1="7" x2="124.1465" y1="49.9375" y2="49.9375"/><ellipse cx="17" cy="63.5859" fill="#84BE84" rx="3" ry="3" style="stroke:#038048;stroke-width:1.0;"/><text fill="#000000" font-family="sans-serif" font-size="14" font-style="italic" lengthAdjust="spacing" textLength="93.1465" x="26" y="66.9326">type(): String</text></g></a><!--class com.spag.lua.LuaConcatable--><a href="LuaConcatable.html" target="_top" title="LuaConcatable.html" xlink:actuate="onRequest" xlink:href="LuaConcatable.html" xlink:show="new" xlink:title="LuaConcatable.html" xlink:type="simple"><g id="elem_com.spag.lua.LuaConcatable"><rect codeLine="16" fill="#F1F1F1" height="37.9375" id="com.spag.lua.LuaConcatable" rx="2.5" ry="2.5" style="stroke:#181818;stroke-width:0.5;" width="136.2002" x="143.5" y="24"/><ellipse cx="158.5" cy="42.9688" fill="#B4A7E5" rx="11" ry="11" style="stroke:#181818;stroke-width:1.0;"/><path d="M154.4219,38.7344 L154.4219,36.5781 L161.8125,36.5781 L161.8125,38.7344 L159.3438,38.7344 L159.3438,46.8125 L161.8125,46.8125 L161.8125,48.9688 L154.4219,48.9688 L154.4219,46.8125 L156.8906,46.8125 L156.8906,38.7344 L154.4219,38.7344 Z " fill="#000000"/><text fill="#000000" font-family="sans-serif" font-size="14" font-style="italic" lengthAdjust="spacing" textLength="104.2002" x="172.5" y="41.9951">LuaConcatable</text><text fill="#000000" font-family="sans-serif" font-size="10" font-style="italic" lengthAdjust="spacing" textLength="66.9922" x="191.104" y="54.5791">com.spag.lua</text></g></a><polygon fill="none" points="84.2993,74.0016,88.7726,92.4404,98.9413,86.0687,84.2993,74.0016" style="stroke:#181818;stroke-width:1.0;"/><path d="M93.8569,89.2546 C100.7006,100.1763 99.0821,97.5933 106.7383,109.8118 " fill="none" style="stroke:#181818;stroke-width:1.0;stroke-dasharray:7.0,7.0;"/><polygon fill="none" points="200.0938,62.2031,185.4518,74.2702,195.6204,80.6419,200.0938,62.2031" style="stroke:#181818;stroke-width:1.0;"/><path d="M190.5361,77.4561 C182.476,90.3191 180.8093,92.979 170.1473,109.9943 " fill="none" style="stroke:#181818;stroke-width:1.0;stroke-dasharray:7.0,7.0;"/><text fill="#888888" font-family="sans-serif" font-size="10" lengthAdjust="spacing" textLength="3.1787" x="137.6606" y="216.2822">&#160;</text><text fill="#888888" font-family="sans-serif" font-size="10" lengthAdjust="spacing" textLength="183.0908" x="47.7046" y="227.9229">UMLDoclet 2.2.0, PlantUML 1.2024.6</text><!--SRC=[bL9DQm8n4BtxAwP2GR44Aps9U6WzsW-GdjJ366VNb7mioQnWhV-zSIDTRQrWBadUp9jvBnC0W9l2OsuGD6vSoH0CCLfiD6880Z5OD1GAb3IX0Zsoys2TfIg-Kai2CWLl85Eab-4t6ekjN8GhN6eC0Pg3e3wfV_ym79VuKfgPFG3TeNH6n5Qvq2Ks0GCS0oAbmtIQ3cB5Hi_diArgxrTdZRgaFZogV4HI6TG_eMrWP2Ltq75PQy9UsRpTXrIevlEce5R4KqA5xv9qPPby5X_XLFxhueCaN-CWCPA9TFxhOukBm1ubx_wHT47HaxCI6HUQhb5LivAo-dvGTnZWUJE3Bo7EZUeivwZLPHxj3KBct7wRsVVdySX97JzaJ_H4zmxUD5gEADokoGVbRAlz3G00]--></g></svg>