<svg xmlns="http://www.w3.org/2000/svg" xmlns:xlink="http://www.w3.org/1999/xlink" contentStyleType="text/css" height="254px" preserveAspectRatio="none" style="width:286px;height:254px;background:#FFFFFF;" version="1.1" viewBox="0 0 286 254" width="286px" zoomAndPan="magnify"><defs/><g><!--class com.spag.lua.LuaString--><a href="LuaString.html" target="_top" title="LuaString.html" xlink:actuate="onRequest" xlink:href="LuaString.html" xlink:show="new" xlink:title="LuaString.html" xlink:type="simple"><g id="elem_com.spag.lua.LuaString"><rect codeLine="7" fill="#F1F1F1" height="119.125" id="com.spag.lua.LuaString" rx="2.5" ry="2.5" style="stroke:#181818;stroke-width:0.5;" width="264.2256" x="6.5" y="110"/><ellipse cx="100.8462" cy="128.9688" fill="#ADD1B2" rx="11" ry="11" style="stroke:#181818;stroke-width:1.0;"/><path d="M103.8149,134.6094 Q103.2368,134.9063 102.5962,135.0469 Q101.9556,135.2031 101.2524,135.2031 Q98.7524,135.2031 97.4243,133.5625 Q96.1118,131.9063 96.1118,128.7813 Q96.1118,125.6563 97.4243,124 Q98.7524,122.3438 101.2524,122.3438 Q101.9556,122.3438 102.5962,122.5 Q103.2524,122.6563 103.8149,122.9531 L103.8149,125.6719 Q103.1899,125.0938 102.5962,124.8281 Q102.0024,124.5469 101.3774,124.5469 Q100.0337,124.5469 99.3462,125.625 Q98.6587,126.6875 98.6587,128.7813 Q98.6587,130.875 99.3462,131.9531 Q100.0337,133.0156 101.3774,133.0156 Q102.0024,133.0156 102.5962,132.75 Q103.1899,132.4688 103.8149,131.8906 L103.8149,134.6094 Z " fill="#000000"/><text fill="#000000" font-family="sans-serif" font-size="14" lengthAdjust="spacing" textLength="67.0332" x="121.3462" y="127.9951">LuaString</text><text fill="#000000" font-family="sans-serif" font-size="10" lengthAdjust="spacing" textLength="66.9922" x="121.3667" y="140.5791">com.spag.lua</text><line style="stroke:#181818;stroke-width:0.5;" x1="7.5" x2="269.7256" y1="147.9375" y2="147.9375"/><ellipse cx="17.5" cy="161.5859" fill="none" rx="3" ry="3" style="stroke:#038048;stroke-width:1.0;"/><text fill="#000000" font-family="sans-serif" font-size="14" lengthAdjust="spacing" textLength="89.1885" x="26.5" y="164.9326">value: String</text><line style="stroke:#181818;stroke-width:0.5;" x1="7.5" x2="269.7256" y1="172.2344" y2="172.2344"/><ellipse cx="17.5" cy="185.8828" fill="#84BE84" rx="3" ry="3" style="stroke:#038048;stroke-width:1.0;"/><text fill="#000000" font-family="sans-serif" font-size="14" lengthAdjust="spacing" textLength="238.2256" x="26.5" y="189.2295">concat(LuaConcatable): LuaString</text><ellipse cx="17.5" cy="202.1797" fill="#84BE84" rx="3" ry="3" style="stroke:#038048;stroke-width:1.0;"/><text fill="#000000" font-family="sans-serif" font-size="14" lengthAdjust="spacing" text-decoration="underline" textLength="142.3994" x="26.5" y="205.5264">of(String): LuaString</text><ellipse cx="17.5" cy="218.4766" fill="#84BE84" rx="3" ry="3" style="stroke:#038048;stroke-width:1.0;"/><text fill="#000000" font-family="sans-serif" font-size="14" lengthAdjust="spacing" textLength="93.1465" x="26.5" y="221.8232">type(): String</text></g></a><!--class com.spag.lua.LuaObject--><a href="LuaObject.html" target="_top" title="LuaObject.html" xlink:actuate="onRequest" xlink:href="LuaObject.html" xlink:show="new" xlink:title="LuaObject.html" xlink:type="simple"><g id="elem_com.spag.lua.LuaObject"><rect codeLine="14" fill="#F1F1F1" height="62.2344" id="com.spag.lua.LuaObject" rx="2.5" ry="2.5" style="stroke:#181818;stroke-width:0.5;" width="119.1465" x="6" y="12"/><ellipse cx="28.3345" cy="30.9688" fill="#B4A7E5" rx="11" ry="11" style="stroke:#181818;stroke-width:1.0;"/><path d="M24.2563,26.7344 L24.2563,24.5781 L31.647,24.5781 L31.647,26.7344 L29.1782,26.7344 L29.1782,34.8125 L31.647,34.8125 L31.647,36.9688 L24.2563,36.9688 L24.2563,34.8125 L26.7251,34.8125 L26.7251,26.7344 L24.2563,26.7344 Z " fill="#000000"/><text fill="#000000" font-family="sans-serif" font-size="14" font-style="italic" lengthAdjust="spacing" textLength="70.8477" x="43.9644" y="29.9951">LuaObject</text><text fill="#000000" font-family="sans-serif" font-size="10" font-style="italic" lengthAdjust="spacing" textLength="66.9922" x="45.8921" y="42.5791">com.spag.lua</text><line style="stroke:#181818;stroke-width:0.5;" x1="7" x2="124.1465" y1="49.9375" y2="49.9375"/><ellipse cx="17" cy="63.5859" fill="#84BE84" rx="3" ry="3" style="stroke:#038048;stroke-width:1.0;"/><text fill="#000000" font-family="sans-serif" font-size="14" font-style="italic" lengthAdjust="spacing" textLength="93.1465" x="26" y="66.9326">type(): String</text></g></a><!--class com.spag.lua.LuaConcatable--><a href="LuaConcatable.html" target="_top" title="LuaConcatable.html" xlink:actuate="onRequest" xlink:href="LuaConcatable.html" xlink:show="new" xlink:title="LuaConcatable.html" xlink:type="simple"><g id="elem_com.spag.lua.LuaConcatable"><rect codeLine="17" fill="#F1F1F1" height="37.9375" id="com.spag.lua.LuaConcatable" rx="2.5" ry="2.5" style="stroke:#181818;stroke-width:0.5;" width="136.2002" x="143.5" y="24"/><ellipse cx="158.5" cy="42.9688" fill="#B4A7E5" rx="11" ry="11" style="stroke:#181818;stroke-width:1.0;"/><path d="M154.4219,38.7344 L154.4219,36.5781 L161.8125,36.5781 L161.8125,38.7344 L159.3438,38.7344 L159.3438,46.8125 L161.8125,46.8125 L161.8125,48.9688 L154.4219,48.9688 L154.4219,46.8125 L156.8906,46.8125 L156.8906,38.7344 L154.4219,38.7344 Z " fill="#000000"/><text fill="#000000" font-family="sans-serif" font-size="14" font-style="italic" lengthAdjust="spacing" textLength="104.2002" x="172.5" y="41.9951">LuaConcatable</text><text fill="#000000" font-family="sans-serif" font-size="10" font-style="italic" lengthAdjust="spacing" textLength="66.9922" x="191.104" y="54.5791">com.spag.lua</text></g></a><polygon fill="none" points="83.1713,74.138,87.0999,92.7005,97.4517,86.6308,83.1713,74.138" style="stroke:#181818;stroke-width:1.0;"/><path d="M92.2758,89.6656 C98.6053,100.4604 96.8704,97.5016 104.1276,109.8785 " fill="none" style="stroke:#181818;stroke-width:1.0;stroke-dasharray:7.0,7.0;"/><polygon fill="none" points="200.8852,62.1034,186.6047,74.5961,196.9565,80.6658,200.8852,62.1034" style="stroke:#181818;stroke-width:1.0;"/><path d="M191.7806,77.631 C184.3464,90.3099 183.0651,92.4952 172.8975,109.8359 " fill="none" style="stroke:#181818;stroke-width:1.0;stroke-dasharray:7.0,7.0;"/><text fill="#888888" font-family="sans-serif" font-size="10" lengthAdjust="spacing" textLength="3.1787" x="137.6606" y="232.2822">&#160;</text><text fill="#888888" font-family="sans-serif" font-size="10" lengthAdjust="spacing" textLength="183.0908" x="47.7046" y="243.9229">UMLDoclet 2.2.0, PlantUML 1.2024.6</text><!--SRC=[bLB1QW8n4Btx5LEXi689LdeIyT8UBIr8J-fXZBDkIZPPabd1Ml-zSIExQhN5N39vapVptYG007U5mrMEe75ZImQV4wF1LYkam1E3mPnyWP8cLA13jWwCDLJbCxKaeBpW3QIAzDAVew5OPWDSuLAZzz0UUlL5WyUdqRZ42JjbLZDpm7eZQNCHkgs4Bh4DwE4O43K3fjCw5XddUZw7RTLalxfhr2KD8EORM5eZaPF0VAuYN6Zg3A2kLD_SUaPMSWTTcoOnT_5UbpS59PsJJhjeLXacbuQndHf-MtoIv5iCHqOq7EFVXhUuyEnGykwAf3yKDQEuHLN3YigQyq7TuSalcnb-2t7bPI_IZhhzIwMzJKYjtMypy_4wVh5IXu_S5ttHUu1tZOO32lThSbvPatH-0000]--></g></svg>