<svg xmlns="http://www.w3.org/2000/svg" xmlns:xlink="http://www.w3.org/1999/xlink" contentStyleType="text/css" height="596px" preserveAspectRatio="none" style="width:382px;height:596px;background:#FFFFFF;" version="1.1" viewBox="0 0 382 596" width="382px" zoomAndPan="magnify"><defs/><g><!--class com.spag.lua.LuaTable--><a href="LuaTable.html" target="_top" title="LuaTable.html" xlink:actuate="onRequest" xlink:href="LuaTable.html" xlink:show="new" xlink:title="LuaTable.html" xlink:type="simple"><g id="elem_com.spag.lua.LuaTable"><rect codeLine="7" fill="#F1F1F1" height="461.3594" id="com.spag.lua.LuaTable" rx="2.5" ry="2.5" style="stroke:#181818;stroke-width:0.5;" width="369.0615" x="6" y="110"/><ellipse cx="152.7847" cy="128.9688" fill="#ADD1B2" rx="11" ry="11" style="stroke:#181818;stroke-width:1.0;"/><path d="M155.7534,134.6094 Q155.1753,134.9063 154.5347,135.0469 Q153.894,135.2031 153.1909,135.2031 Q150.6909,135.2031 149.3628,133.5625 Q148.0503,131.9063 148.0503,128.7813 Q148.0503,125.6563 149.3628,124 Q150.6909,122.3438 153.1909,122.3438 Q153.894,122.3438 154.5347,122.5 Q155.1909,122.6563 155.7534,122.9531 L155.7534,125.6719 Q155.1284,125.0938 154.5347,124.8281 Q153.9409,124.5469 153.3159,124.5469 Q151.9722,124.5469 151.2847,125.625 Q150.5972,126.6875 150.5972,128.7813 Q150.5972,130.875 151.2847,131.9531 Q151.9722,133.0156 153.3159,133.0156 Q153.9409,133.0156 154.5347,132.75 Q155.1284,132.4688 155.7534,131.8906 L155.7534,134.6094 Z " fill="#000000"/><text fill="#000000" font-family="sans-serif" font-size="14" lengthAdjust="spacing" textLength="63.7725" x="174.8945" y="127.9951">LuaTable</text><text fill="#000000" font-family="sans-serif" font-size="10" lengthAdjust="spacing" textLength="66.9922" x="173.2847" y="140.5791">com.spag.lua</text><line style="stroke:#181818;stroke-width:0.5;" x1="7" x2="374.0615" y1="147.9375" y2="147.9375"/><ellipse cx="17" cy="161.5859" fill="none" rx="3" ry="3" style="stroke:#038048;stroke-width:1.0;"/><text fill="#000000" font-family="sans-serif" font-size="14" lengthAdjust="spacing" text-decoration="underline" textLength="122.4521" x="26" y="164.9326">bracePat: Pattern</text><ellipse cx="17" cy="177.8828" fill="none" rx="3" ry="3" style="stroke:#038048;stroke-width:1.0;"/><text fill="#000000" font-family="sans-serif" font-size="14" lengthAdjust="spacing" text-decoration="underline" textLength="114.3037" x="26" y="181.2295">numPat: Pattern</text><ellipse cx="17" cy="194.1797" fill="none" rx="3" ry="3" style="stroke:#038048;stroke-width:1.0;"/><text fill="#000000" font-family="sans-serif" font-size="14" lengthAdjust="spacing" text-decoration="underline" textLength="123.1084" x="26" y="197.5264">stringPat: Pattern</text><ellipse cx="17" cy="210.4766" fill="none" rx="3" ry="3" style="stroke:#038048;stroke-width:1.0;"/><text fill="#000000" font-family="sans-serif" font-size="14" lengthAdjust="spacing" text-decoration="underline" textLength="155.9482" x="26" y="213.8232">luaValueRegex: String</text><ellipse cx="17" cy="226.7734" fill="none" rx="3" ry="3" style="stroke:#038048;stroke-width:1.0;"/><text fill="#000000" font-family="sans-serif" font-size="14" lengthAdjust="spacing" text-decoration="underline" textLength="116.457" x="26" y="230.1201">indexed: Pattern</text><ellipse cx="17" cy="243.0703" fill="none" rx="3" ry="3" style="stroke:#038048;stroke-width:1.0;"/><text fill="#000000" font-family="sans-serif" font-size="14" lengthAdjust="spacing" text-decoration="underline" textLength="102.915" x="26" y="246.417">keyed: Pattern</text><line style="stroke:#181818;stroke-width:0.5;" x1="7" x2="374.0615" y1="253.7188" y2="253.7188"/><ellipse cx="17" cy="267.3672" fill="#84BE84" rx="3" ry="3" style="stroke:#038048;stroke-width:1.0;"/><text fill="#000000" font-family="sans-serif" font-size="14" lengthAdjust="spacing" textLength="334.3389" x="26" y="270.7139">ipairs(BiConsumer&lt;LuaNum, LuaObject&gt;): void</text><ellipse cx="17" cy="283.6641" fill="#84BE84" rx="3" ry="3" style="stroke:#038048;stroke-width:1.0;"/><text fill="#000000" font-family="sans-serif" font-size="14" lengthAdjust="spacing" textLength="343.0615" x="26" y="287.0107">pairs(BiConsumer&lt;LuaObject, LuaObject&gt;): void</text><ellipse cx="17" cy="299.9609" fill="#84BE84" rx="3" ry="3" style="stroke:#038048;stroke-width:1.0;"/><text fill="#000000" font-family="sans-serif" font-size="14" lengthAdjust="spacing" textLength="214.7305" x="26" y="303.3076">stream(): Stream&lt;LuaObject&gt;</text><ellipse cx="17" cy="316.2578" fill="#84BE84" rx="3" ry="3" style="stroke:#038048;stroke-width:1.0;"/><text fill="#000000" font-family="sans-serif" font-size="14" lengthAdjust="spacing" textLength="268.4063" x="26" y="319.6045">parallelStream(): Stream&lt;LuaObject&gt;</text><ellipse cx="17" cy="332.5547" fill="#84BE84" rx="3" ry="3" style="stroke:#038048;stroke-width:1.0;"/><text fill="#000000" font-family="sans-serif" font-size="14" lengthAdjust="spacing" text-decoration="line-through" textLength="22.9893" x="26" y="335.9014">get</text><text fill="#000000" font-family="sans-serif" font-size="14" lengthAdjust="spacing" textLength="132.7197" x="48.9893" y="335.9014">(String): LuaObject</text><ellipse cx="17" cy="348.8516" fill="#84BE84" rx="3" ry="3" style="stroke:#038048;stroke-width:1.0;"/><text fill="#000000" font-family="sans-serif" font-size="14" lengthAdjust="spacing" textLength="184.7754" x="26" y="352.1982">get(LuaObject): LuaObject</text><ellipse cx="17" cy="365.1484" fill="#84BE84" rx="3" ry="3" style="stroke:#038048;stroke-width:1.0;"/><text fill="#000000" font-family="sans-serif" font-size="14" lengthAdjust="spacing" text-decoration="line-through" textLength="23.249" x="26" y="368.4951">put</text><text fill="#000000" font-family="sans-serif" font-size="14" lengthAdjust="spacing" textLength="212.4678" x="49.249" y="368.4951">(String, LuaObject): LuaObject</text><ellipse cx="17" cy="381.4453" fill="#84BE84" rx="3" ry="3" style="stroke:#038048;stroke-width:1.0;"/><text fill="#000000" font-family="sans-serif" font-size="14" lengthAdjust="spacing" textLength="223.5625" x="26" y="384.792">put(LuaObject, LuaObject): void</text><ellipse cx="17" cy="397.7422" fill="#84BE84" rx="3" ry="3" style="stroke:#038048;stroke-width:1.0;"/><text fill="#000000" font-family="sans-serif" font-size="14" lengthAdjust="spacing" textLength="160.4805" x="26" y="401.0889">insert(LuaObject): void</text><ellipse cx="17" cy="414.0391" fill="#84BE84" rx="3" ry="3" style="stroke:#038048;stroke-width:1.0;"/><text fill="#000000" font-family="sans-serif" font-size="14" lengthAdjust="spacing" textLength="227.6162" x="26" y="417.3857">insert(LuaNum, LuaObject): void</text><ellipse cx="17" cy="430.3359" fill="#84BE84" rx="3" ry="3" style="stroke:#038048;stroke-width:1.0;"/><text fill="#000000" font-family="sans-serif" font-size="14" lengthAdjust="spacing" text-decoration="line-through" textLength="22.9893" x="26" y="433.6826">get</text><text fill="#000000" font-family="sans-serif" font-size="14" lengthAdjust="spacing" textLength="109.1904" x="48.9893" y="433.6826">(int): LuaObject</text><ellipse cx="17" cy="446.6328" fill="#84BE84" rx="3" ry="3" style="stroke:#038048;stroke-width:1.0;"/><text fill="#000000" font-family="sans-serif" font-size="14" lengthAdjust="spacing" text-decoration="line-through" textLength="26.3525" x="26" y="449.9795">add</text><text fill="#000000" font-family="sans-serif" font-size="14" lengthAdjust="spacing" textLength="120.5654" x="52.3525" y="449.9795">(LuaObject): void</text><ellipse cx="17" cy="462.9297" fill="#84BE84" rx="3" ry="3" style="stroke:#038048;stroke-width:1.0;"/><text fill="#000000" font-family="sans-serif" font-size="14" lengthAdjust="spacing" text-decoration="line-through" textLength="26.3525" x="26" y="466.2764">add</text><text fill="#000000" font-family="sans-serif" font-size="14" lengthAdjust="spacing" textLength="147.7178" x="52.3525" y="466.2764">(int, LuaObject): void</text><ellipse cx="17" cy="479.2266" fill="#84BE84" rx="3" ry="3" style="stroke:#038048;stroke-width:1.0;"/><text fill="#000000" font-family="sans-serif" font-size="14" lengthAdjust="spacing" text-decoration="line-through" textLength="52.0352" x="26" y="482.5732">replace</text><text fill="#000000" font-family="sans-serif" font-size="14" lengthAdjust="spacing" textLength="188.9385" x="78.0352" y="482.5732">(int, LuaObject): LuaObject</text><ellipse cx="17" cy="495.5234" fill="#84BE84" rx="3" ry="3" style="stroke:#038048;stroke-width:1.0;"/><text fill="#000000" font-family="sans-serif" font-size="14" lengthAdjust="spacing" textLength="65.4883" x="26" y="498.8701">size(): int</text><ellipse cx="17" cy="511.8203" fill="#84BE84" rx="3" ry="3" style="stroke:#038048;stroke-width:1.0;"/><text fill="#000000" font-family="sans-serif" font-size="14" lengthAdjust="spacing" textLength="193.1426" x="26" y="515.167">merge(LuaTable): LuaTable</text><ellipse cx="17" cy="528.1172" fill="#84BE84" rx="3" ry="3" style="stroke:#038048;stroke-width:1.0;"/><text fill="#000000" font-family="sans-serif" font-size="14" lengthAdjust="spacing" text-decoration="underline" textLength="265.8154" x="26" y="531.4639">merge(LuaTable, LuaTable): LuaTable</text><ellipse cx="17" cy="544.4141" fill="#84BE84" rx="3" ry="3" style="stroke:#038048;stroke-width:1.0;"/><text fill="#000000" font-family="sans-serif" font-size="14" lengthAdjust="spacing" text-decoration="underline" textLength="200.3135" x="26" y="547.7607">fromString(String): LuaTable</text><ellipse cx="17" cy="560.7109" fill="#84BE84" rx="3" ry="3" style="stroke:#038048;stroke-width:1.0;"/><text fill="#000000" font-family="sans-serif" font-size="14" lengthAdjust="spacing" textLength="93.1465" x="26" y="564.0576">type(): String</text></g></a><!--class com.spag.lua.LuaObject--><a href="LuaObject.html" target="_top" title="LuaObject.html" xlink:actuate="onRequest" xlink:href="LuaObject.html" xlink:show="new" xlink:title="LuaObject.html" xlink:type="simple"><g id="elem_com.spag.lua.LuaObject"><rect codeLine="35" fill="#F1F1F1" height="62.2344" id="com.spag.lua.LuaObject" rx="2.5" ry="2.5" style="stroke:#181818;stroke-width:0.5;" width="119.1465" x="131" y="12"/><ellipse cx="153.3345" cy="30.9688" fill="#B4A7E5" rx="11" ry="11" style="stroke:#181818;stroke-width:1.0;"/><path d="M149.2563,26.7344 L149.2563,24.5781 L156.647,24.5781 L156.647,26.7344 L154.1782,26.7344 L154.1782,34.8125 L156.647,34.8125 L156.647,36.9688 L149.2563,36.9688 L149.2563,34.8125 L151.7251,34.8125 L151.7251,26.7344 L149.2563,26.7344 Z " fill="#000000"/><text fill="#000000" font-family="sans-serif" font-size="14" font-style="italic" lengthAdjust="spacing" textLength="70.8477" x="168.9644" y="29.9951">LuaObject</text><text fill="#000000" font-family="sans-serif" font-size="10" font-style="italic" lengthAdjust="spacing" textLength="66.9922" x="170.8921" y="42.5791">com.spag.lua</text><line style="stroke:#181818;stroke-width:0.5;" x1="132" x2="249.1465" y1="49.9375" y2="49.9375"/><ellipse cx="142" cy="63.5859" fill="#84BE84" rx="3" ry="3" style="stroke:#038048;stroke-width:1.0;"/><text fill="#000000" font-family="sans-serif" font-size="14" font-style="italic" lengthAdjust="spacing" textLength="93.1465" x="151" y="66.9326">type(): String</text></g></a><polygon fill="none" points="190.5,74.235,184.5,92.235,196.5,92.235,190.5,74.235" style="stroke:#181818;stroke-width:1.0;"/><path d="M190.5,92.235 C190.5,102.311 190.5,96.4391 190.5,109.8897 " fill="none" style="stroke:#181818;stroke-width:1.0;stroke-dasharray:7.0,7.0;"/><text fill="#888888" font-family="sans-serif" font-size="10" lengthAdjust="spacing" textLength="3.1787" x="185.4106" y="574.2822">&#160;</text><text fill="#888888" font-family="sans-serif" font-size="10" lengthAdjust="spacing" textLength="183.0908" x="95.4546" y="585.9229">UMLDoclet 2.2.0, PlantUML 1.2024.6</text><!--SRC=[bPHDRzD048Rl_HL39IH7YQrISOgY781ZWOe0bxQ7YJrn5lR3sbrN3IN_dR6thkDsunOVxDNuUMVstOy107XJMImLWiITgJquHHurdfpmBt3aGQCYLs5EAwhGeZSMjD7K_j-AWe1KvNUm4IGBzpJAoRQ6msqyb-WSd2wS-4FpT- -N5pL-nxMaQ_qGEblcHcLShCnaZQU03Wu3MIU0gwjkc6szaZStSDzMQ9vxvz6BV0_JjULPNwAV0xyyMHrXTArU89otGfSlG3oxdoXh-aObtSrXrMeYdD05tL4nbketxMB0L5Geh4i-Y8z6krgHNV0QVAdL3FZxTVsBSh-SpE7MYA8NnJI17PMnPqALJ5edFEfboyFS5gKakNeDdAOb-JHDmiem-mZr31F9OpYEf6bLzsaEFCHnXfEOusU6XNPaXzMF0SCbVmPsHeK-QW6BWe6n587W5EELB5MIZtWCZHHkxbYpIypsGJuJ9INTRGh2TXWvcKDs1gzJRQnHORi6cp_4ftvNqSCHwcxEFdGDdYxP3TiSTexWxdzQHr24tX76aUQ1QpxxcFlzs9IEP5xypR9ummegQfp0nfZcSwr_VBxuP7B9BVOyEy_EPd0fKNkEmjjRiauOdKp-0G00]--></g></svg>