<svg xmlns="http://www.w3.org/2000/svg" xmlns:xlink="http://www.w3.org/1999/xlink" contentStyleType="text/css" height="515px" preserveAspectRatio="none" style="width:365px;height:515px;background:#FFFFFF;" version="1.1" viewBox="0 0 365 515" width="365px" zoomAndPan="magnify"><defs/><g><!--class com.spag.lua.LuaTable--><a href="LuaTable.html" target="_top" title="LuaTable.html" xlink:actuate="onRequest" xlink:href="LuaTable.html" xlink:show="new" xlink:title="LuaTable.html" xlink:type="simple"><g id="elem_com.spag.lua.LuaTable"><rect codeLine="7" fill="#F1F1F1" height="379.875" id="com.spag.lua.LuaTable" rx="2.5" ry="2.5" style="stroke:#181818;stroke-width:0.5;" width="352.4639" x="6" y="110"/><ellipse cx="144.4858" cy="128.9688" fill="#ADD1B2" rx="11" ry="11" style="stroke:#181818;stroke-width:1.0;"/><path d="M147.4546,134.6094 Q146.8765,134.9063 146.2358,135.0469 Q145.5952,135.2031 144.8921,135.2031 Q142.3921,135.2031 141.064,133.5625 Q139.7515,131.9063 139.7515,128.7813 Q139.7515,125.6563 141.064,124 Q142.3921,122.3438 144.8921,122.3438 Q145.5952,122.3438 146.2358,122.5 Q146.8921,122.6563 147.4546,122.9531 L147.4546,125.6719 Q146.8296,125.0938 146.2358,124.8281 Q145.6421,124.5469 145.0171,124.5469 Q143.6733,124.5469 142.9858,125.625 Q142.2983,126.6875 142.2983,128.7813 Q142.2983,130.875 142.9858,131.9531 Q143.6733,133.0156 145.0171,133.0156 Q145.6421,133.0156 146.2358,132.75 Q146.8296,132.4688 147.4546,131.8906 L147.4546,134.6094 Z " fill="#000000"/><text fill="#000000" font-family="sans-serif" font-size="14" lengthAdjust="spacing" textLength="63.7725" x="166.5957" y="127.9951">LuaTable</text><text fill="#000000" font-family="sans-serif" font-size="10" lengthAdjust="spacing" textLength="66.9922" x="164.9858" y="140.5791">com.spag.lua</text><line style="stroke:#181818;stroke-width:0.5;" x1="7" x2="357.4639" y1="147.9375" y2="147.9375"/><ellipse cx="17" cy="161.5859" fill="none" rx="3" ry="3" style="stroke:#038048;stroke-width:1.0;"/><text fill="#000000" font-family="sans-serif" font-size="14" lengthAdjust="spacing" text-decoration="underline" textLength="122.4521" x="26" y="164.9326">bracePat: Pattern</text><ellipse cx="17" cy="177.8828" fill="none" rx="3" ry="3" style="stroke:#038048;stroke-width:1.0;"/><text fill="#000000" font-family="sans-serif" font-size="14" lengthAdjust="spacing" text-decoration="underline" textLength="114.3037" x="26" y="181.2295">numPat: Pattern</text><ellipse cx="17" cy="194.1797" fill="none" rx="3" ry="3" style="stroke:#038048;stroke-width:1.0;"/><text fill="#000000" font-family="sans-serif" font-size="14" lengthAdjust="spacing" text-decoration="underline" textLength="123.1084" x="26" y="197.5264">stringPat: Pattern</text><ellipse cx="17" cy="210.4766" fill="none" rx="3" ry="3" style="stroke:#038048;stroke-width:1.0;"/><text fill="#000000" font-family="sans-serif" font-size="14" lengthAdjust="spacing" text-decoration="underline" textLength="116.457" x="26" y="213.8232">indexed: Pattern</text><ellipse cx="17" cy="226.7734" fill="none" rx="3" ry="3" style="stroke:#038048;stroke-width:1.0;"/><text fill="#000000" font-family="sans-serif" font-size="14" lengthAdjust="spacing" text-decoration="underline" textLength="102.915" x="26" y="230.1201">keyed: Pattern</text><line style="stroke:#181818;stroke-width:0.5;" x1="7" x2="357.4639" y1="237.4219" y2="237.4219"/><ellipse cx="17" cy="251.0703" fill="#84BE84" rx="3" ry="3" style="stroke:#038048;stroke-width:1.0;"/><text fill="#000000" font-family="sans-serif" font-size="14" lengthAdjust="spacing" textLength="326.4639" x="26" y="254.417">ipairs(BiConsumer&lt;Integer, LuaObject&gt;): void</text><ellipse cx="17" cy="267.3672" fill="#84BE84" rx="3" ry="3" style="stroke:#038048;stroke-width:1.0;"/><text fill="#000000" font-family="sans-serif" font-size="14" lengthAdjust="spacing" textLength="313.9951" x="26" y="270.7139">pairs(BiConsumer&lt;String, LuaObject&gt;): void</text><ellipse cx="17" cy="283.6641" fill="#84BE84" rx="3" ry="3" style="stroke:#038048;stroke-width:1.0;"/><text fill="#000000" font-family="sans-serif" font-size="14" lengthAdjust="spacing" textLength="214.7305" x="26" y="287.0107">stream(): Stream&lt;LuaObject&gt;</text><ellipse cx="17" cy="299.9609" fill="#84BE84" rx="3" ry="3" style="stroke:#038048;stroke-width:1.0;"/><text fill="#000000" font-family="sans-serif" font-size="14" lengthAdjust="spacing" textLength="268.4063" x="26" y="303.3076">parallelStream(): Stream&lt;LuaObject&gt;</text><ellipse cx="17" cy="316.2578" fill="#84BE84" rx="3" ry="3" style="stroke:#038048;stroke-width:1.0;"/><text fill="#000000" font-family="sans-serif" font-size="14" lengthAdjust="spacing" textLength="155.709" x="26" y="319.6045">get(String): LuaObject</text><ellipse cx="17" cy="332.5547" fill="#84BE84" rx="3" ry="3" style="stroke:#038048;stroke-width:1.0;"/><text fill="#000000" font-family="sans-serif" font-size="14" lengthAdjust="spacing" textLength="235.7168" x="26" y="335.9014">put(String, LuaObject): LuaObject</text><ellipse cx="17" cy="348.8516" fill="#84BE84" rx="3" ry="3" style="stroke:#038048;stroke-width:1.0;"/><text fill="#000000" font-family="sans-serif" font-size="14" lengthAdjust="spacing" textLength="132.1797" x="26" y="352.1982">get(int): LuaObject</text><ellipse cx="17" cy="365.1484" fill="#84BE84" rx="3" ry="3" style="stroke:#038048;stroke-width:1.0;"/><text fill="#000000" font-family="sans-serif" font-size="14" lengthAdjust="spacing" textLength="146.918" x="26" y="368.4951">add(LuaObject): void</text><ellipse cx="17" cy="381.4453" fill="#84BE84" rx="3" ry="3" style="stroke:#038048;stroke-width:1.0;"/><text fill="#000000" font-family="sans-serif" font-size="14" lengthAdjust="spacing" textLength="174.0703" x="26" y="384.792">add(int, LuaObject): void</text><ellipse cx="17" cy="397.7422" fill="#84BE84" rx="3" ry="3" style="stroke:#038048;stroke-width:1.0;"/><text fill="#000000" font-family="sans-serif" font-size="14" lengthAdjust="spacing" textLength="240.9736" x="26" y="401.0889">replace(int, LuaObject): LuaObject</text><ellipse cx="17" cy="414.0391" fill="#84BE84" rx="3" ry="3" style="stroke:#038048;stroke-width:1.0;"/><text fill="#000000" font-family="sans-serif" font-size="14" lengthAdjust="spacing" textLength="65.4883" x="26" y="417.3857">size(): int</text><ellipse cx="17" cy="430.3359" fill="#84BE84" rx="3" ry="3" style="stroke:#038048;stroke-width:1.0;"/><text fill="#000000" font-family="sans-serif" font-size="14" lengthAdjust="spacing" textLength="193.1426" x="26" y="433.6826">merge(LuaTable): LuaTable</text><ellipse cx="17" cy="446.6328" fill="#84BE84" rx="3" ry="3" style="stroke:#038048;stroke-width:1.0;"/><text fill="#000000" font-family="sans-serif" font-size="14" lengthAdjust="spacing" text-decoration="underline" textLength="265.8154" x="26" y="449.9795">merge(LuaTable, LuaTable): LuaTable</text><ellipse cx="17" cy="462.9297" fill="#84BE84" rx="3" ry="3" style="stroke:#038048;stroke-width:1.0;"/><text fill="#000000" font-family="sans-serif" font-size="14" lengthAdjust="spacing" text-decoration="underline" textLength="200.3135" x="26" y="466.2764">fromString(String): LuaTable</text><ellipse cx="17" cy="479.2266" fill="#84BE84" rx="3" ry="3" style="stroke:#038048;stroke-width:1.0;"/><text fill="#000000" font-family="sans-serif" font-size="14" lengthAdjust="spacing" textLength="93.1465" x="26" y="482.5732">type(): String</text></g></a><!--class com.spag.lua.LuaObject--><a href="LuaObject.html" target="_top" title="LuaObject.html" xlink:actuate="onRequest" xlink:href="LuaObject.html" xlink:show="new" xlink:title="LuaObject.html" xlink:type="simple"><g id="elem_com.spag.lua.LuaObject"><rect codeLine="30" fill="#F1F1F1" height="62.2344" id="com.spag.lua.LuaObject" rx="2.5" ry="2.5" style="stroke:#181818;stroke-width:0.5;" width="119.1465" x="122.5" y="12"/><ellipse cx="144.8345" cy="30.9688" fill="#B4A7E5" rx="11" ry="11" style="stroke:#181818;stroke-width:1.0;"/><path d="M140.7563,26.7344 L140.7563,24.5781 L148.147,24.5781 L148.147,26.7344 L145.6782,26.7344 L145.6782,34.8125 L148.147,34.8125 L148.147,36.9688 L140.7563,36.9688 L140.7563,34.8125 L143.2251,34.8125 L143.2251,26.7344 L140.7563,26.7344 Z " fill="#000000"/><text fill="#000000" font-family="sans-serif" font-size="14" font-style="italic" lengthAdjust="spacing" textLength="70.8477" x="160.4644" y="29.9951">LuaObject</text><text fill="#000000" font-family="sans-serif" font-size="10" font-style="italic" lengthAdjust="spacing" textLength="66.9922" x="162.3921" y="42.5791">com.spag.lua</text><line style="stroke:#181818;stroke-width:0.5;" x1="123.5" x2="240.6465" y1="49.9375" y2="49.9375"/><ellipse cx="133.5" cy="63.5859" fill="#84BE84" rx="3" ry="3" style="stroke:#038048;stroke-width:1.0;"/><text fill="#000000" font-family="sans-serif" font-size="14" font-style="italic" lengthAdjust="spacing" textLength="93.1465" x="142.5" y="66.9326">type(): String</text></g></a><polygon fill="none" points="182,74.0016,176,92.0016,188,92.0016,182,74.0016" style="stroke:#181818;stroke-width:1.0;"/><path d="M182,92.0016 C182,102.2048 182,96.4744 182,109.9509 " fill="none" style="stroke:#181818;stroke-width:1.0;stroke-dasharray:7.0,7.0;"/><text fill="#888888" font-family="sans-serif" font-size="10" lengthAdjust="spacing" textLength="3.1787" x="176.9106" y="493.2822">&#160;</text><text fill="#888888" font-family="sans-serif" font-size="10" lengthAdjust="spacing" textLength="183.0908" x="86.9546" y="504.9229">UMLDoclet 2.2.0, PlantUML 1.2024.6</text><!--SRC=[bLHDRzf04BtdLqoHAZa2MMdK4q8ScbmgfIeIxId9OR07i-b-MBjZL9hotplsGh2BGuWFzkZDU_EnEsC0W0-bny8WQDouYY4OOhHuSI4k2CHWqL0eCQCvbUYHdGVhB3N-bSe9o9IyWQKYdOV_KGcsSW8tUAOn11XCWlf3uq-VftSL_i25fWUxWwwccJEf92jINU40C40RIFS2kB_Vc-cAZNvyXEScG_qy1qPMsHQ62ozLpv3782ycRtiujZ9lC09xPOitIChcz9loKvHVjEaZ35M9oeVaYxfnDbI6_EIhPIh8Zq2Q_BvueeodbsDOEvKVL4UYULFcIOrqGcWImUUDDJbmsu4zQarwVWwv84vYOk6z45h1ghs_LLW_jGwbx2jEpFEahU_sLNj5satHfNWgjGp3CQqdMJsBTT_2FO1on0Kb-wcBmiRikUakTmJdgPRUcNXMdIFjqeUyAMbtAK9fy6tSBYcN_5AQx6vOxEuzAnOLSSUYtRDak91fmeotfqfw9VBaRvhsBtPKKTq9B9shFm_svxUxMvTf-HLTfzVfrGXc6YqB2X_Nv8DoDhdy1m00]--></g></svg>