<svg xmlns="http://www.w3.org/2000/svg" xmlns:xlink="http://www.w3.org/1999/xlink" contentStyleType="text/css" height="547px" preserveAspectRatio="none" style="width:1039px;height:547px;background:#FFFFFF;" version="1.1" viewBox="0 0 1039 547" width="1039px" zoomAndPan="magnify"><defs/><g><!--cluster com.spag.lua--><g id="cluster_com.spag.lua"><path d="M16.5,4 L122.6777,4 A3.75,3.75 0 0 1 125.1777,6.5 L132.1777,26.2969 L1029.5,26.2969 A2.5,2.5 0 0 1 1032,28.7969 L1032,511.5 A2.5,2.5 0 0 1 1029.5,514 L16.5,514 A2.5,2.5 0 0 1 14,511.5 L14,6.5 A2.5,2.5 0 0 1 16.5,4 " fill="none" style="stroke:#000000;stroke-width:1.5;"/><line style="stroke:#000000;stroke-width:1.5;" x1="14" x2="132.1777" y1="26.2969" y2="26.2969"/><text fill="#000000" font-family="sans-serif" font-size="14" font-weight="bold" lengthAdjust="spacing" textLength="105.1777" x="18" y="18.9951">com.spag.lua</text></g><!--class LuaObject--><a href="LuaObject.html" target="_top" title="LuaObject.html" xlink:actuate="onRequest" xlink:href="LuaObject.html" xlink:show="new" xlink:title="LuaObject.html" xlink:type="simple"><g id="elem_LuaObject"><rect codeLine="6" fill="#F1F1F1" height="64.2969" id="LuaObject" rx="2.5" ry="2.5" style="stroke:#181818;stroke-width:0.5;" width="119.1465" x="344.5" y="31"/><ellipse cx="366.8345" cy="47" fill="#B4A7E5" rx="11" ry="11" style="stroke:#181818;stroke-width:1.0;"/><path d="M362.7563,42.7656 L362.7563,40.6094 L370.147,40.6094 L370.147,42.7656 L367.6782,42.7656 L367.6782,50.8438 L370.147,50.8438 L370.147,53 L362.7563,53 L362.7563,50.8438 L365.2251,50.8438 L365.2251,42.7656 L362.7563,42.7656 Z " fill="#000000"/><text fill="#000000" font-family="sans-serif" font-size="14" font-style="italic" lengthAdjust="spacing" textLength="70.8477" x="382.4644" y="51.8467">LuaObject</text><line style="stroke:#181818;stroke-width:0.5;" x1="345.5" x2="462.6465" y1="63" y2="63"/><line style="stroke:#181818;stroke-width:0.5;" x1="345.5" x2="462.6465" y1="71" y2="71"/><ellipse cx="355.5" cy="84.6484" fill="#84BE84" rx="3" ry="3" style="stroke:#038048;stroke-width:1.0;"/><text fill="#000000" font-family="sans-serif" font-size="14" font-style="italic" lengthAdjust="spacing" textLength="93.1465" x="364.5" y="87.9951">type(): String</text></g></a><!--class LuaString--><a href="LuaString.html" target="_top" title="LuaString.html" xlink:actuate="onRequest" xlink:href="LuaString.html" xlink:show="new" xlink:title="LuaString.html" xlink:type="simple"><g id="elem_LuaString"><rect codeLine="10" fill="#F1F1F1" height="113.1875" id="LuaString" rx="2.5" ry="2.5" style="stroke:#181818;stroke-width:0.5;" width="264.2256" x="582" y="262.5"/><ellipse cx="676.3462" cy="278.5" fill="#ADD1B2" rx="11" ry="11" style="stroke:#181818;stroke-width:1.0;"/><path d="M679.3149,284.1406 Q678.7368,284.4375 678.0962,284.5781 Q677.4556,284.7344 676.7524,284.7344 Q674.2524,284.7344 672.9243,283.0938 Q671.6118,281.4375 671.6118,278.3125 Q671.6118,275.1875 672.9243,273.5313 Q674.2524,271.875 676.7524,271.875 Q677.4556,271.875 678.0962,272.0313 Q678.7524,272.1875 679.3149,272.4844 L679.3149,275.2031 Q678.6899,274.625 678.0962,274.3594 Q677.5024,274.0781 676.8774,274.0781 Q675.5337,274.0781 674.8462,275.1563 Q674.1587,276.2188 674.1587,278.3125 Q674.1587,280.4063 674.8462,281.4844 Q675.5337,282.5469 676.8774,282.5469 Q677.5024,282.5469 678.0962,282.2813 Q678.6899,282 679.3149,281.4219 L679.3149,284.1406 Z " fill="#000000"/><text fill="#000000" font-family="sans-serif" font-size="14" lengthAdjust="spacing" textLength="67.0332" x="696.8462" y="283.3467">LuaString</text><line style="stroke:#181818;stroke-width:0.5;" x1="583" x2="845.2256" y1="294.5" y2="294.5"/><ellipse cx="593" cy="308.1484" fill="none" rx="3" ry="3" style="stroke:#038048;stroke-width:1.0;"/><text fill="#000000" font-family="sans-serif" font-size="14" lengthAdjust="spacing" textLength="89.1885" x="602" y="311.4951">value: String</text><line style="stroke:#181818;stroke-width:0.5;" x1="583" x2="845.2256" y1="318.7969" y2="318.7969"/><ellipse cx="593" cy="332.4453" fill="#84BE84" rx="3" ry="3" style="stroke:#038048;stroke-width:1.0;"/><text fill="#000000" font-family="sans-serif" font-size="14" lengthAdjust="spacing" textLength="238.2256" x="602" y="335.792">concat(LuaConcatable): LuaString</text><ellipse cx="593" cy="348.7422" fill="#84BE84" rx="3" ry="3" style="stroke:#038048;stroke-width:1.0;"/><text fill="#000000" font-family="sans-serif" font-size="14" lengthAdjust="spacing" text-decoration="underline" textLength="142.3994" x="602" y="352.0889">of(String): LuaString</text><ellipse cx="593" cy="365.0391" fill="#84BE84" rx="3" ry="3" style="stroke:#038048;stroke-width:1.0;"/><text fill="#000000" font-family="sans-serif" font-size="14" lengthAdjust="spacing" textLength="93.1465" x="602" y="368.3857">type(): String</text></g></a><!--class LuaBool--><a href="LuaBool.html" target="_top" title="LuaBool.html" xlink:actuate="onRequest" xlink:href="LuaBool.html" xlink:show="new" xlink:title="LuaBool.html" xlink:type="simple"><g id="elem_LuaBool"><rect codeLine="17" fill="#F1F1F1" height="129.4844" id="LuaBool" rx="2.5" ry="2.5" style="stroke:#181818;stroke-width:0.5;" width="171.4346" x="22.5" y="254.5"/><ellipse cx="76.0288" cy="270.5" fill="#EB937F" rx="11" ry="11" style="stroke:#181818;stroke-width:1.0;"/><path d="M80.1382,276.5 L72.4194,276.5 L72.4194,264.1094 L80.1382,264.1094 L80.1382,266.2656 L74.8726,266.2656 L74.8726,268.9375 L79.6382,268.9375 L79.6382,271.0938 L74.8726,271.0938 L74.8726,274.3438 L80.1382,274.3438 L80.1382,276.5 Z " fill="#000000"/><text fill="#000000" font-family="sans-serif" font-size="14" lengthAdjust="spacing" textLength="55.877" x="96.5288" y="275.3467">LuaBool</text><line style="stroke:#181818;stroke-width:0.5;" x1="23.5" x2="192.9346" y1="286.5" y2="286.5"/><ellipse cx="33.5" cy="300.1484" fill="none" rx="3" ry="3" style="stroke:#038048;stroke-width:1.0;"/><text fill="#000000" font-family="sans-serif" font-size="14" lengthAdjust="spacing" text-decoration="underline" textLength="31.7939" x="42.5" y="303.4951">True</text><ellipse cx="33.5" cy="316.4453" fill="none" rx="3" ry="3" style="stroke:#038048;stroke-width:1.0;"/><text fill="#000000" font-family="sans-serif" font-size="14" lengthAdjust="spacing" text-decoration="underline" textLength="36.4287" x="42.5" y="319.792">False</text><line style="stroke:#181818;stroke-width:0.5;" x1="23.5" x2="192.9346" y1="327.0938" y2="327.0938"/><ellipse cx="33.5" cy="340.7422" fill="#84BE84" rx="3" ry="3" style="stroke:#038048;stroke-width:1.0;"/><text fill="#000000" font-family="sans-serif" font-size="14" lengthAdjust="spacing" textLength="99.0527" x="42.5" y="344.0889">get(): boolean</text><ellipse cx="33.5" cy="357.0391" fill="#84BE84" rx="3" ry="3" style="stroke:#038048;stroke-width:1.0;"/><text fill="#000000" font-family="sans-serif" font-size="14" lengthAdjust="spacing" text-decoration="underline" textLength="145.4346" x="42.5" y="360.3857">of(boolean): LuaBool</text><ellipse cx="33.5" cy="373.3359" fill="#84BE84" rx="3" ry="3" style="stroke:#038048;stroke-width:1.0;"/><text fill="#000000" font-family="sans-serif" font-size="14" lengthAdjust="spacing" textLength="93.1465" x="42.5" y="376.6826">type(): String</text></g></a><!--class SoftFlyweightUtil--><a href="SoftFlyweightUtil.html" target="_top" title="SoftFlyweightUtil.html" xlink:actuate="onRequest" xlink:href="SoftFlyweightUtil.html" xlink:show="new" xlink:title="SoftFlyweightUtil.html" xlink:type="simple"><g id="elem_SoftFlyweightUtil"><rect codeLine="25" fill="#F1F1F1" height="48" id="SoftFlyweightUtil" rx="2.5" ry="2.5" style="stroke:#181818;stroke-width:0.5;" width="150.8154" x="562.5" y="39"/><ellipse cx="577.5" cy="55" fill="#A9DCDF" rx="11" ry="11" style="stroke:#181818;stroke-width:1.0;"/><path d="M577.6094,50.3438 L576.4531,55.4219 L578.7813,55.4219 L577.6094,50.3438 Z M576.125,48.1094 L579.1094,48.1094 L582.4688,60.5 L580.0156,60.5 L579.25,57.4375 L575.9688,57.4375 L575.2188,60.5 L572.7813,60.5 L576.125,48.1094 Z " fill="#000000"/><text fill="#000000" font-family="sans-serif" font-size="14" font-style="italic" lengthAdjust="spacing" textLength="118.8154" x="591.5" y="59.8467">SoftFlyweightUtil</text><line style="stroke:#181818;stroke-width:0.5;" x1="563.5" x2="712.3154" y1="71" y2="71"/><line style="stroke:#181818;stroke-width:0.5;" x1="563.5" x2="712.3154" y1="79" y2="79"/></g></a><!--class LuaTable--><a href="LuaTable.html" target="_top" title="LuaTable.html" xlink:actuate="onRequest" xlink:href="LuaTable.html" xlink:show="new" xlink:title="LuaTable.html" xlink:type="simple"><g id="elem_LuaTable"><rect codeLine="28" fill="#F1F1F1" height="373.9375" id="LuaTable" rx="2.5" ry="2.5" style="stroke:#181818;stroke-width:0.5;" width="352.4639" x="212" y="132"/><ellipse cx="352.0957" cy="148" fill="#ADD1B2" rx="11" ry="11" style="stroke:#181818;stroke-width:1.0;"/><path d="M355.0645,153.6406 Q354.4863,153.9375 353.8457,154.0781 Q353.2051,154.2344 352.502,154.2344 Q350.002,154.2344 348.6738,152.5938 Q347.3613,150.9375 347.3613,147.8125 Q347.3613,144.6875 348.6738,143.0313 Q350.002,141.375 352.502,141.375 Q353.2051,141.375 353.8457,141.5313 Q354.502,141.6875 355.0645,141.9844 L355.0645,144.7031 Q354.4395,144.125 353.8457,143.8594 Q353.252,143.5781 352.627,143.5781 Q351.2832,143.5781 350.5957,144.6563 Q349.9082,145.7188 349.9082,147.8125 Q349.9082,149.9063 350.5957,150.9844 Q351.2832,152.0469 352.627,152.0469 Q353.252,152.0469 353.8457,151.7813 Q354.4395,151.5 355.0645,150.9219 L355.0645,153.6406 Z " fill="#000000"/><text fill="#000000" font-family="sans-serif" font-size="14" lengthAdjust="spacing" textLength="63.7725" x="372.5957" y="152.8467">LuaTable</text><line style="stroke:#181818;stroke-width:0.5;" x1="213" x2="563.4639" y1="164" y2="164"/><ellipse cx="223" cy="177.6484" fill="none" rx="3" ry="3" style="stroke:#038048;stroke-width:1.0;"/><text fill="#000000" font-family="sans-serif" font-size="14" lengthAdjust="spacing" text-decoration="underline" textLength="122.4521" x="232" y="180.9951">bracePat: Pattern</text><ellipse cx="223" cy="193.9453" fill="none" rx="3" ry="3" style="stroke:#038048;stroke-width:1.0;"/><text fill="#000000" font-family="sans-serif" font-size="14" lengthAdjust="spacing" text-decoration="underline" textLength="114.3037" x="232" y="197.292">numPat: Pattern</text><ellipse cx="223" cy="210.2422" fill="none" rx="3" ry="3" style="stroke:#038048;stroke-width:1.0;"/><text fill="#000000" font-family="sans-serif" font-size="14" lengthAdjust="spacing" text-decoration="underline" textLength="123.1084" x="232" y="213.5889">stringPat: Pattern</text><ellipse cx="223" cy="226.5391" fill="none" rx="3" ry="3" style="stroke:#038048;stroke-width:1.0;"/><text fill="#000000" font-family="sans-serif" font-size="14" lengthAdjust="spacing" text-decoration="underline" textLength="116.457" x="232" y="229.8857">indexed: Pattern</text><ellipse cx="223" cy="242.8359" fill="none" rx="3" ry="3" style="stroke:#038048;stroke-width:1.0;"/><text fill="#000000" font-family="sans-serif" font-size="14" lengthAdjust="spacing" text-decoration="underline" textLength="102.915" x="232" y="246.1826">keyed: Pattern</text><line style="stroke:#181818;stroke-width:0.5;" x1="213" x2="563.4639" y1="253.4844" y2="253.4844"/><ellipse cx="223" cy="267.1328" fill="#84BE84" rx="3" ry="3" style="stroke:#038048;stroke-width:1.0;"/><text fill="#000000" font-family="sans-serif" font-size="14" lengthAdjust="spacing" textLength="326.4639" x="232" y="270.4795">ipairs(BiConsumer&lt;Integer, LuaObject&gt;): void</text><ellipse cx="223" cy="283.4297" fill="#84BE84" rx="3" ry="3" style="stroke:#038048;stroke-width:1.0;"/><text fill="#000000" font-family="sans-serif" font-size="14" lengthAdjust="spacing" textLength="313.9951" x="232" y="286.7764">pairs(BiConsumer&lt;String, LuaObject&gt;): void</text><ellipse cx="223" cy="299.7266" fill="#84BE84" rx="3" ry="3" style="stroke:#038048;stroke-width:1.0;"/><text fill="#000000" font-family="sans-serif" font-size="14" lengthAdjust="spacing" textLength="214.7305" x="232" y="303.0732">stream(): Stream&lt;LuaObject&gt;</text><ellipse cx="223" cy="316.0234" fill="#84BE84" rx="3" ry="3" style="stroke:#038048;stroke-width:1.0;"/><text fill="#000000" font-family="sans-serif" font-size="14" lengthAdjust="spacing" textLength="268.4063" x="232" y="319.3701">parallelStream(): Stream&lt;LuaObject&gt;</text><ellipse cx="223" cy="332.3203" fill="#84BE84" rx="3" ry="3" style="stroke:#038048;stroke-width:1.0;"/><text fill="#000000" font-family="sans-serif" font-size="14" lengthAdjust="spacing" textLength="155.709" x="232" y="335.667">get(String): LuaObject</text><ellipse cx="223" cy="348.6172" fill="#84BE84" rx="3" ry="3" style="stroke:#038048;stroke-width:1.0;"/><text fill="#000000" font-family="sans-serif" font-size="14" lengthAdjust="spacing" textLength="235.7168" x="232" y="351.9639">put(String, LuaObject): LuaObject</text><ellipse cx="223" cy="364.9141" fill="#84BE84" rx="3" ry="3" style="stroke:#038048;stroke-width:1.0;"/><text fill="#000000" font-family="sans-serif" font-size="14" lengthAdjust="spacing" textLength="132.1797" x="232" y="368.2607">get(int): LuaObject</text><ellipse cx="223" cy="381.2109" fill="#84BE84" rx="3" ry="3" style="stroke:#038048;stroke-width:1.0;"/><text fill="#000000" font-family="sans-serif" font-size="14" lengthAdjust="spacing" textLength="146.918" x="232" y="384.5576">add(LuaObject): void</text><ellipse cx="223" cy="397.5078" fill="#84BE84" rx="3" ry="3" style="stroke:#038048;stroke-width:1.0;"/><text fill="#000000" font-family="sans-serif" font-size="14" lengthAdjust="spacing" textLength="174.0703" x="232" y="400.8545">add(int, LuaObject): void</text><ellipse cx="223" cy="413.8047" fill="#84BE84" rx="3" ry="3" style="stroke:#038048;stroke-width:1.0;"/><text fill="#000000" font-family="sans-serif" font-size="14" lengthAdjust="spacing" textLength="240.9736" x="232" y="417.1514">replace(int, LuaObject): LuaObject</text><ellipse cx="223" cy="430.1016" fill="#84BE84" rx="3" ry="3" style="stroke:#038048;stroke-width:1.0;"/><text fill="#000000" font-family="sans-serif" font-size="14" lengthAdjust="spacing" textLength="65.4883" x="232" y="433.4482">size(): int</text><ellipse cx="223" cy="446.3984" fill="#84BE84" rx="3" ry="3" style="stroke:#038048;stroke-width:1.0;"/><text fill="#000000" font-family="sans-serif" font-size="14" lengthAdjust="spacing" textLength="193.1426" x="232" y="449.7451">merge(LuaTable): LuaTable</text><ellipse cx="223" cy="462.6953" fill="#84BE84" rx="3" ry="3" style="stroke:#038048;stroke-width:1.0;"/><text fill="#000000" font-family="sans-serif" font-size="14" lengthAdjust="spacing" text-decoration="underline" textLength="265.8154" x="232" y="466.042">merge(LuaTable, LuaTable): LuaTable</text><ellipse cx="223" cy="478.9922" fill="#84BE84" rx="3" ry="3" style="stroke:#038048;stroke-width:1.0;"/><text fill="#000000" font-family="sans-serif" font-size="14" lengthAdjust="spacing" text-decoration="underline" textLength="200.3135" x="232" y="482.3389">fromString(String): LuaTable</text><ellipse cx="223" cy="495.2891" fill="#84BE84" rx="3" ry="3" style="stroke:#038048;stroke-width:1.0;"/><text fill="#000000" font-family="sans-serif" font-size="14" lengthAdjust="spacing" textLength="93.1465" x="232" y="498.6357">type(): String</text></g></a><!--class LuaConcatable--><a href="LuaConcatable.html" target="_top" title="LuaConcatable.html" xlink:actuate="onRequest" xlink:href="LuaConcatable.html" xlink:show="new" xlink:title="LuaConcatable.html" xlink:type="simple"><g id="elem_LuaConcatable"><rect codeLine="51" fill="#F1F1F1" height="64.2969" id="LuaConcatable" rx="2.5" ry="2.5" style="stroke:#181818;stroke-width:0.5;" width="264.2256" x="754" y="31"/><ellipse cx="829.7627" cy="47" fill="#B4A7E5" rx="11" ry="11" style="stroke:#181818;stroke-width:1.0;"/><path d="M825.6846,42.7656 L825.6846,40.6094 L833.0752,40.6094 L833.0752,42.7656 L830.6064,42.7656 L830.6064,50.8438 L833.0752,50.8438 L833.0752,53 L825.6846,53 L825.6846,50.8438 L828.1533,50.8438 L828.1533,42.7656 L825.6846,42.7656 Z " fill="#000000"/><text fill="#000000" font-family="sans-serif" font-size="14" font-style="italic" lengthAdjust="spacing" textLength="104.2002" x="850.2627" y="51.8467">LuaConcatable</text><line style="stroke:#181818;stroke-width:0.5;" x1="755" x2="1017.2256" y1="63" y2="63"/><line style="stroke:#181818;stroke-width:0.5;" x1="755" x2="1017.2256" y1="71" y2="71"/><ellipse cx="765" cy="84.6484" fill="#84BE84" rx="3" ry="3" style="stroke:#038048;stroke-width:1.0;"/><text fill="#000000" font-family="sans-serif" font-size="14" lengthAdjust="spacing" textLength="238.2256" x="774" y="87.9951">concat(LuaConcatable): LuaString</text></g></a><!--class LuaNum--><a href="LuaNum.html" target="_top" title="LuaNum.html" xlink:actuate="onRequest" xlink:href="LuaNum.html" xlink:show="new" xlink:title="LuaNum.html" xlink:type="simple"><g id="elem_LuaNum"><rect codeLine="55" fill="#F1F1F1" height="96.8906" id="LuaNum" rx="2.5" ry="2.5" style="stroke:#181818;stroke-width:0.5;" width="159.6016" x="864" y="270.5"/><ellipse cx="910.4331" cy="286.5" fill="#ADD1B2" rx="11" ry="11" style="stroke:#181818;stroke-width:1.0;"/><path d="M913.4019,292.1406 Q912.8237,292.4375 912.1831,292.5781 Q911.5425,292.7344 910.8394,292.7344 Q908.3394,292.7344 907.0112,291.0938 Q905.6987,289.4375 905.6987,286.3125 Q905.6987,283.1875 907.0112,281.5313 Q908.3394,279.875 910.8394,279.875 Q911.5425,279.875 912.1831,280.0313 Q912.8394,280.1875 913.4019,280.4844 L913.4019,283.2031 Q912.7769,282.625 912.1831,282.3594 Q911.5894,282.0781 910.9644,282.0781 Q909.6206,282.0781 908.9331,283.1563 Q908.2456,284.2188 908.2456,286.3125 Q908.2456,288.4063 908.9331,289.4844 Q909.6206,290.5469 910.9644,290.5469 Q911.5894,290.5469 912.1831,290.2813 Q912.7769,290 913.4019,289.4219 L913.4019,292.1406 Z " fill="#000000"/><text fill="#000000" font-family="sans-serif" font-size="14" lengthAdjust="spacing" textLength="58.2354" x="930.9331" y="291.3467">LuaNum</text><line style="stroke:#181818;stroke-width:0.5;" x1="865" x2="1022.6016" y1="302.5" y2="302.5"/><ellipse cx="875" cy="316.1484" fill="none" rx="3" ry="3" style="stroke:#038048;stroke-width:1.0;"/><text fill="#000000" font-family="sans-serif" font-size="14" lengthAdjust="spacing" textLength="126.875" x="884" y="319.4951">value: BigDecimal</text><line style="stroke:#181818;stroke-width:0.5;" x1="865" x2="1022.6016" y1="326.7969" y2="326.7969"/><ellipse cx="875" cy="340.4453" fill="#84BE84" rx="3" ry="3" style="stroke:#038048;stroke-width:1.0;"/><text fill="#000000" font-family="sans-serif" font-size="14" lengthAdjust="spacing" text-decoration="underline" textLength="133.6016" x="884" y="343.792">of(String): LuaNum</text><ellipse cx="875" cy="356.7422" fill="#84BE84" rx="3" ry="3" style="stroke:#038048;stroke-width:1.0;"/><text fill="#000000" font-family="sans-serif" font-size="14" lengthAdjust="spacing" textLength="93.1465" x="884" y="360.0889">type(): String</text></g></a><polygon fill="#181818" points="463.79,71.7891,473.1799,74.7606,468.7589,71.2316,472.2879,66.8105,463.79,71.7891" style="stroke:#181818;stroke-width:1.0;"/><path d="M463.79,54.2109 C474.2344,55.3828 481.5,58.3125 481.5,63 C481.5,67.6875 480.197,69.9482 469.7526,71.12 " fill="none" style="stroke:#181818;stroke-width:1.0;"/><text fill="#000000" font-family="sans-serif" font-size="13" lengthAdjust="spacing" textLength="15.4629" x="483.5" y="67.5669">nil</text><polygon fill="none" points="463.5729,79.3157,478.9312,90.4568,482.5441,79.0136,463.5729,79.3157" style="stroke:#181818;stroke-width:1.0;"/><path d="M480.7376,84.7352 C515.0848,95.5797 540.5795,107.2334 573,132 C619.208,167.2991 657.9165,221.4682 683.014,262.2608 " fill="none" style="stroke:#181818;stroke-width:1.0;stroke-dasharray:7.0,7.0;"/><polygon fill="none" points="864.9094,95.1454,849.8487,106.6855,859.7849,113.4139,864.9094,95.1454" style="stroke:#181818;stroke-width:1.0;"/><path d="M854.8168,110.0497 C826.6494,151.6457 786.3646,211.136 751.6132,262.4549 " fill="none" style="stroke:#181818;stroke-width:1.0;stroke-dasharray:7.0,7.0;"/><polygon fill="none" points="344.3884,71.9235,325.5737,69.472,327.8658,81.2511,344.3884,71.9235" style="stroke:#181818;stroke-width:1.0;"/><path d="M326.7198,75.3616 C283.2443,83.8215 242.8674,97.5659 203,132 C165.9544,163.9968 141.5617,213.972 126.779,254.066 " fill="none" style="stroke:#181818;stroke-width:1.0;stroke-dasharray:7.0,7.0;"/><polygon fill="none" points="402.0381,95.1454,394.9183,112.7326,406.8946,113.487,402.0381,95.1454" style="stroke:#181818;stroke-width:1.0;"/><path d="M400.9065,113.1098 C400.2472,123.575 400.5889,118.152 399.7241,131.8796 " fill="none" style="stroke:#181818;stroke-width:1.0;stroke-dasharray:7.0,7.0;"/><polygon fill="none" points="463.6451,77.4905,479.9796,87.1436,482.5046,75.4123,463.6451,77.4905" style="stroke:#181818;stroke-width:1.0;"/><path d="M481.2421,81.278 C508.6671,87.1808 524.0872,90.0789 554,95 C620.4985,105.9399 800.2845,92.6561 855,132 C900.4855,164.7069 923.6191,226.9368 934.7306,270.37 " fill="none" style="stroke:#181818;stroke-width:1.0;stroke-dasharray:7.0,7.0;"/><polygon fill="none" points="893.1119,95.1454,891.2696,114.0294,902.9685,111.358,893.1119,95.1454" style="stroke:#181818;stroke-width:1.0;"/><path d="M897.119,112.6937 C907.1013,156.4092 921.3487,218.8028 933.0651,270.1126 " fill="none" style="stroke:#181818;stroke-width:1.0;stroke-dasharray:7.0,7.0;"/><text fill="#888888" font-family="sans-serif" font-size="10" lengthAdjust="spacing" textLength="3.1787" x="509.9106" y="525.2822">&#160;</text><text fill="#888888" font-family="sans-serif" font-size="10" lengthAdjust="spacing" textLength="183.0908" x="419.9546" y="536.9229">UMLDoclet 2.2.0, PlantUML 1.2024.6</text><!--SRC=[bLPBRzim3BxtLsY70IwI6aEFHj13MXGOq6q5qfww7XY7SRNAaY79sRAk_tsKbVXHHudjGqoR7p-IuiDXZB5FXOOi1oPWgqhBJ8uM99oHXXcaPon0WrMQ9SbPzRQ0z1KoPAdAOrD05eiIs9lNkOjBYteDARAx4duiVs5gsTDJBSSlDXVFpsJ1MjSRB8tLaDftDh7R0gFpX2sivZAhOU-DYrI0COxUGpozbm_JJpOWIknHLgfKoHHiH0pNbGHBWUIzPkp6QInOdbAKQXrvVH0x816KPUwivqe9duMJ0aTKktxG9GPKjo1CLpV9qBeWbaIC8CFPx00-7HV6s6Js9ToLPw7MzbPiVoFFNkoZvIx1thj-geVA_E1gui-d4ayTq9B2m7km2QCVwiPGrdJw0r2codW0aCiL_i7LATWhRaEW2I-0QnFDEVMYANFKiwyqJXdgQJDDLrI5ZUAhhcNFq1Vgf1rbXv3lAalIhC5_TA1121IBeGQkyTeZua4VICizfXLe6EueQR-40R1QHMsUVhuEGHHTTtsOna9G4_MX0SU6_wt6W_1T1PKYmsZVkPwW4WFTqSLFsN3BjLQvFylEiVTD1inoPuatUz7FOFCSsBQ3L-gXOVzEAx5oGyBnRJxdsGscF0SnR4SJuPXpsDtQtxaaQRvf5nTN8Lt291T7ZMV_uhYlRCNHqxMACDxugDTwruypQ_fgdDs-2kCph2tHTITRA-LkF-NZjxiRbGhwjt8PNyPVfknUWBJqbdtUe3PSoUZyFm00]--></g></svg>