<svg xmlns="http://www.w3.org/2000/svg" xmlns:xlink="http://www.w3.org/1999/xlink" contentStyleType="text/css" height="628px" preserveAspectRatio="none" style="width:1274px;height:628px;background:#FFFFFF;" version="1.1" viewBox="0 0 1274 628" width="1274px" zoomAndPan="magnify"><defs/><g><!--cluster com.spag.lua--><g id="cluster_com.spag.lua"><path d="M16.5,4 L122.6777,4 A3.75,3.75 0 0 1 125.1777,6.5 L132.1777,26.2969 L1088.5,26.2969 A2.5,2.5 0 0 1 1091,28.7969 L1091,592.5 A2.5,2.5 0 0 1 1088.5,595 L16.5,595 A2.5,2.5 0 0 1 14,592.5 L14,6.5 A2.5,2.5 0 0 1 16.5,4 " fill="none" style="stroke:#000000;stroke-width:1.5;"/><line style="stroke:#000000;stroke-width:1.5;" x1="14" x2="132.1777" y1="26.2969" y2="26.2969"/><text fill="#000000" font-family="sans-serif" font-size="14" font-weight="bold" lengthAdjust="spacing" textLength="105.1777" x="18" y="18.9951">com.spag.lua</text></g><!--cluster java.lang--><g id="cluster_java.lang"><path d="M1101.5,4 L1174.8721,4 A3.75,3.75 0 0 1 1177.3721,6.5 L1184.3721,26.2969 L1264.5,26.2969 A2.5,2.5 0 0 1 1267,28.7969 L1267,100.5 A2.5,2.5 0 0 1 1264.5,103 L1101.5,103 A2.5,2.5 0 0 1 1099,100.5 L1099,6.5 A2.5,2.5 0 0 1 1101.5,4 " fill="none" style="stroke:#000000;stroke-width:1.5;"/><line style="stroke:#000000;stroke-width:1.5;" x1="1099" x2="1184.3721" y1="26.2969" y2="26.2969"/><text fill="#000000" font-family="sans-serif" font-size="14" font-weight="bold" lengthAdjust="spacing" textLength="72.3721" x="1103" y="18.9951">java.lang</text></g><!--class LuaTable--><a href="LuaTable.html" target="_top" title="LuaTable.html" xlink:actuate="onRequest" xlink:href="LuaTable.html" xlink:show="new" xlink:title="LuaTable.html" xlink:type="simple"><g id="elem_LuaTable"><rect codeLine="6" fill="#F1F1F1" height="455.4219" id="LuaTable" rx="2.5" ry="2.5" style="stroke:#181818;stroke-width:0.5;" width="369.0615" x="211.5" y="132"/><ellipse cx="359.8945" cy="148" fill="#ADD1B2" rx="11" ry="11" style="stroke:#181818;stroke-width:1.0;"/><path d="M362.8633,153.6406 Q362.2852,153.9375 361.6445,154.0781 Q361.0039,154.2344 360.3008,154.2344 Q357.8008,154.2344 356.4727,152.5938 Q355.1602,150.9375 355.1602,147.8125 Q355.1602,144.6875 356.4727,143.0313 Q357.8008,141.375 360.3008,141.375 Q361.0039,141.375 361.6445,141.5313 Q362.3008,141.6875 362.8633,141.9844 L362.8633,144.7031 Q362.2383,144.125 361.6445,143.8594 Q361.0508,143.5781 360.4258,143.5781 Q359.082,143.5781 358.3945,144.6563 Q357.707,145.7188 357.707,147.8125 Q357.707,149.9063 358.3945,150.9844 Q359.082,152.0469 360.4258,152.0469 Q361.0508,152.0469 361.6445,151.7813 Q362.2383,151.5 362.8633,150.9219 L362.8633,153.6406 Z " fill="#000000"/><text fill="#000000" font-family="sans-serif" font-size="14" lengthAdjust="spacing" textLength="63.7725" x="380.3945" y="152.8467">LuaTable</text><line style="stroke:#181818;stroke-width:0.5;" x1="212.5" x2="579.5615" y1="164" y2="164"/><ellipse cx="222.5" cy="177.6484" fill="none" rx="3" ry="3" style="stroke:#038048;stroke-width:1.0;"/><text fill="#000000" font-family="sans-serif" font-size="14" lengthAdjust="spacing" text-decoration="underline" textLength="122.4521" x="231.5" y="180.9951">bracePat: Pattern</text><ellipse cx="222.5" cy="193.9453" fill="none" rx="3" ry="3" style="stroke:#038048;stroke-width:1.0;"/><text fill="#000000" font-family="sans-serif" font-size="14" lengthAdjust="spacing" text-decoration="underline" textLength="114.3037" x="231.5" y="197.292">numPat: Pattern</text><ellipse cx="222.5" cy="210.2422" fill="none" rx="3" ry="3" style="stroke:#038048;stroke-width:1.0;"/><text fill="#000000" font-family="sans-serif" font-size="14" lengthAdjust="spacing" text-decoration="underline" textLength="123.1084" x="231.5" y="213.5889">stringPat: Pattern</text><ellipse cx="222.5" cy="226.5391" fill="none" rx="3" ry="3" style="stroke:#038048;stroke-width:1.0;"/><text fill="#000000" font-family="sans-serif" font-size="14" lengthAdjust="spacing" text-decoration="underline" textLength="155.9482" x="231.5" y="229.8857">luaValueRegex: String</text><ellipse cx="222.5" cy="242.8359" fill="none" rx="3" ry="3" style="stroke:#038048;stroke-width:1.0;"/><text fill="#000000" font-family="sans-serif" font-size="14" lengthAdjust="spacing" text-decoration="underline" textLength="116.457" x="231.5" y="246.1826">indexed: Pattern</text><ellipse cx="222.5" cy="259.1328" fill="none" rx="3" ry="3" style="stroke:#038048;stroke-width:1.0;"/><text fill="#000000" font-family="sans-serif" font-size="14" lengthAdjust="spacing" text-decoration="underline" textLength="102.915" x="231.5" y="262.4795">keyed: Pattern</text><line style="stroke:#181818;stroke-width:0.5;" x1="212.5" x2="579.5615" y1="269.7813" y2="269.7813"/><ellipse cx="222.5" cy="283.4297" fill="#84BE84" rx="3" ry="3" style="stroke:#038048;stroke-width:1.0;"/><text fill="#000000" font-family="sans-serif" font-size="14" lengthAdjust="spacing" textLength="334.3389" x="231.5" y="286.7764">ipairs(BiConsumer&lt;LuaNum, LuaObject&gt;): void</text><ellipse cx="222.5" cy="299.7266" fill="#84BE84" rx="3" ry="3" style="stroke:#038048;stroke-width:1.0;"/><text fill="#000000" font-family="sans-serif" font-size="14" lengthAdjust="spacing" textLength="343.0615" x="231.5" y="303.0732">pairs(BiConsumer&lt;LuaObject, LuaObject&gt;): void</text><ellipse cx="222.5" cy="316.0234" fill="#84BE84" rx="3" ry="3" style="stroke:#038048;stroke-width:1.0;"/><text fill="#000000" font-family="sans-serif" font-size="14" lengthAdjust="spacing" textLength="214.7305" x="231.5" y="319.3701">stream(): Stream&lt;LuaObject&gt;</text><ellipse cx="222.5" cy="332.3203" fill="#84BE84" rx="3" ry="3" style="stroke:#038048;stroke-width:1.0;"/><text fill="#000000" font-family="sans-serif" font-size="14" lengthAdjust="spacing" textLength="268.4063" x="231.5" y="335.667">parallelStream(): Stream&lt;LuaObject&gt;</text><ellipse cx="222.5" cy="348.6172" fill="#84BE84" rx="3" ry="3" style="stroke:#038048;stroke-width:1.0;"/><text fill="#000000" font-family="sans-serif" font-size="14" lengthAdjust="spacing" text-decoration="line-through" textLength="22.9893" x="231.5" y="351.9639">get</text><text fill="#000000" font-family="sans-serif" font-size="14" lengthAdjust="spacing" textLength="132.7197" x="254.4893" y="351.9639">(String): LuaObject</text><ellipse cx="222.5" cy="364.9141" fill="#84BE84" rx="3" ry="3" style="stroke:#038048;stroke-width:1.0;"/><text fill="#000000" font-family="sans-serif" font-size="14" lengthAdjust="spacing" textLength="184.7754" x="231.5" y="368.2607">get(LuaObject): LuaObject</text><ellipse cx="222.5" cy="381.2109" fill="#84BE84" rx="3" ry="3" style="stroke:#038048;stroke-width:1.0;"/><text fill="#000000" font-family="sans-serif" font-size="14" lengthAdjust="spacing" text-decoration="line-through" textLength="23.249" x="231.5" y="384.5576">put</text><text fill="#000000" font-family="sans-serif" font-size="14" lengthAdjust="spacing" textLength="212.4678" x="254.749" y="384.5576">(String, LuaObject): LuaObject</text><ellipse cx="222.5" cy="397.5078" fill="#84BE84" rx="3" ry="3" style="stroke:#038048;stroke-width:1.0;"/><text fill="#000000" font-family="sans-serif" font-size="14" lengthAdjust="spacing" textLength="223.5625" x="231.5" y="400.8545">put(LuaObject, LuaObject): void</text><ellipse cx="222.5" cy="413.8047" fill="#84BE84" rx="3" ry="3" style="stroke:#038048;stroke-width:1.0;"/><text fill="#000000" font-family="sans-serif" font-size="14" lengthAdjust="spacing" textLength="160.4805" x="231.5" y="417.1514">insert(LuaObject): void</text><ellipse cx="222.5" cy="430.1016" fill="#84BE84" rx="3" ry="3" style="stroke:#038048;stroke-width:1.0;"/><text fill="#000000" font-family="sans-serif" font-size="14" lengthAdjust="spacing" textLength="227.6162" x="231.5" y="433.4482">insert(LuaNum, LuaObject): void</text><ellipse cx="222.5" cy="446.3984" fill="#84BE84" rx="3" ry="3" style="stroke:#038048;stroke-width:1.0;"/><text fill="#000000" font-family="sans-serif" font-size="14" lengthAdjust="spacing" text-decoration="line-through" textLength="22.9893" x="231.5" y="449.7451">get</text><text fill="#000000" font-family="sans-serif" font-size="14" lengthAdjust="spacing" textLength="109.1904" x="254.4893" y="449.7451">(int): LuaObject</text><ellipse cx="222.5" cy="462.6953" fill="#84BE84" rx="3" ry="3" style="stroke:#038048;stroke-width:1.0;"/><text fill="#000000" font-family="sans-serif" font-size="14" lengthAdjust="spacing" text-decoration="line-through" textLength="26.3525" x="231.5" y="466.042">add</text><text fill="#000000" font-family="sans-serif" font-size="14" lengthAdjust="spacing" textLength="120.5654" x="257.8525" y="466.042">(LuaObject): void</text><ellipse cx="222.5" cy="478.9922" fill="#84BE84" rx="3" ry="3" style="stroke:#038048;stroke-width:1.0;"/><text fill="#000000" font-family="sans-serif" font-size="14" lengthAdjust="spacing" text-decoration="line-through" textLength="26.3525" x="231.5" y="482.3389">add</text><text fill="#000000" font-family="sans-serif" font-size="14" lengthAdjust="spacing" textLength="147.7178" x="257.8525" y="482.3389">(int, LuaObject): void</text><ellipse cx="222.5" cy="495.2891" fill="#84BE84" rx="3" ry="3" style="stroke:#038048;stroke-width:1.0;"/><text fill="#000000" font-family="sans-serif" font-size="14" lengthAdjust="spacing" text-decoration="line-through" textLength="52.0352" x="231.5" y="498.6357">replace</text><text fill="#000000" font-family="sans-serif" font-size="14" lengthAdjust="spacing" textLength="188.9385" x="283.5352" y="498.6357">(int, LuaObject): LuaObject</text><ellipse cx="222.5" cy="511.5859" fill="#84BE84" rx="3" ry="3" style="stroke:#038048;stroke-width:1.0;"/><text fill="#000000" font-family="sans-serif" font-size="14" lengthAdjust="spacing" textLength="65.4883" x="231.5" y="514.9326">size(): int</text><ellipse cx="222.5" cy="527.8828" fill="#84BE84" rx="3" ry="3" style="stroke:#038048;stroke-width:1.0;"/><text fill="#000000" font-family="sans-serif" font-size="14" lengthAdjust="spacing" textLength="193.1426" x="231.5" y="531.2295">merge(LuaTable): LuaTable</text><ellipse cx="222.5" cy="544.1797" fill="#84BE84" rx="3" ry="3" style="stroke:#038048;stroke-width:1.0;"/><text fill="#000000" font-family="sans-serif" font-size="14" lengthAdjust="spacing" text-decoration="underline" textLength="265.8154" x="231.5" y="547.5264">merge(LuaTable, LuaTable): LuaTable</text><ellipse cx="222.5" cy="560.4766" fill="#84BE84" rx="3" ry="3" style="stroke:#038048;stroke-width:1.0;"/><text fill="#000000" font-family="sans-serif" font-size="14" lengthAdjust="spacing" text-decoration="underline" textLength="200.3135" x="231.5" y="563.8232">fromString(String): LuaTable</text><ellipse cx="222.5" cy="576.7734" fill="#84BE84" rx="3" ry="3" style="stroke:#038048;stroke-width:1.0;"/><text fill="#000000" font-family="sans-serif" font-size="14" lengthAdjust="spacing" textLength="93.1465" x="231.5" y="580.1201">type(): String</text></g></a><!--class LuaNum--><a href="LuaNum.html" target="_top" title="LuaNum.html" xlink:actuate="onRequest" xlink:href="LuaNum.html" xlink:show="new" xlink:title="LuaNum.html" xlink:type="simple"><g id="elem_LuaNum"><rect codeLine="34" fill="#F1F1F1" height="162.0781" id="LuaNum" rx="2.5" ry="2.5" style="stroke:#181818;stroke-width:0.5;" width="201.4307" x="881.5" y="278.5"/><ellipse cx="948.8477" cy="294.5" fill="#ADD1B2" rx="11" ry="11" style="stroke:#181818;stroke-width:1.0;"/><path d="M951.8164,300.1406 Q951.2383,300.4375 950.5977,300.5781 Q949.957,300.7344 949.2539,300.7344 Q946.7539,300.7344 945.4258,299.0938 Q944.1133,297.4375 944.1133,294.3125 Q944.1133,291.1875 945.4258,289.5313 Q946.7539,287.875 949.2539,287.875 Q949.957,287.875 950.5977,288.0313 Q951.2539,288.1875 951.8164,288.4844 L951.8164,291.2031 Q951.1914,290.625 950.5977,290.3594 Q950.0039,290.0781 949.3789,290.0781 Q948.0352,290.0781 947.3477,291.1563 Q946.6602,292.2188 946.6602,294.3125 Q946.6602,296.4063 947.3477,297.4844 Q948.0352,298.5469 949.3789,298.5469 Q950.0039,298.5469 950.5977,298.2813 Q951.1914,298 951.8164,297.4219 L951.8164,300.1406 Z " fill="#000000"/><text fill="#000000" font-family="sans-serif" font-size="14" lengthAdjust="spacing" textLength="58.2354" x="969.3477" y="299.3467">LuaNum</text><line style="stroke:#181818;stroke-width:0.5;" x1="882.5" x2="1081.9307" y1="310.5" y2="310.5"/><ellipse cx="892.5" cy="324.1484" fill="none" rx="3" ry="3" style="stroke:#038048;stroke-width:1.0;"/><text fill="#000000" font-family="sans-serif" font-size="14" lengthAdjust="spacing" textLength="126.875" x="901.5" y="327.4951">value: BigDecimal</text><line style="stroke:#181818;stroke-width:0.5;" x1="882.5" x2="1081.9307" y1="334.7969" y2="334.7969"/><ellipse cx="892.5" cy="348.4453" fill="#84BE84" rx="3" ry="3" style="stroke:#038048;stroke-width:1.0;"/><text fill="#000000" font-family="sans-serif" font-size="14" lengthAdjust="spacing" text-decoration="underline" textLength="133.6016" x="901.5" y="351.792">of(String): LuaNum</text><ellipse cx="892.5" cy="364.7422" fill="#84BE84" rx="3" ry="3" style="stroke:#038048;stroke-width:1.0;"/><text fill="#000000" font-family="sans-serif" font-size="14" lengthAdjust="spacing" text-decoration="underline" textLength="137.416" x="901.5" y="368.0889">of(Object): LuaNum</text><ellipse cx="892.5" cy="381.0391" fill="#84BE84" rx="3" ry="3" style="stroke:#038048;stroke-width:1.0;"/><text fill="#000000" font-family="sans-serif" font-size="14" lengthAdjust="spacing" textLength="137.6074" x="901.5" y="384.3857">isInteger(): boolean</text><ellipse cx="892.5" cy="397.3359" fill="#84BE84" rx="3" ry="3" style="stroke:#038048;stroke-width:1.0;"/><text fill="#000000" font-family="sans-serif" font-size="14" lengthAdjust="spacing" textLength="141.7158" x="901.5" y="400.6826">isPositive(): boolean</text><ellipse cx="892.5" cy="413.6328" fill="#84BE84" rx="3" ry="3" style="stroke:#038048;stroke-width:1.0;"/><text fill="#000000" font-family="sans-serif" font-size="14" lengthAdjust="spacing" textLength="93.1465" x="901.5" y="416.9795">type(): String</text><ellipse cx="892.5" cy="429.9297" fill="#84BE84" rx="3" ry="3" style="stroke:#038048;stroke-width:1.0;"/><text fill="#000000" font-family="sans-serif" font-size="14" lengthAdjust="spacing" textLength="175.4307" x="901.5" y="433.2764">compareTo(LuaNum): int</text></g></a><!--class LuaBool--><a href="LuaBool.html" target="_top" title="LuaBool.html" xlink:actuate="onRequest" xlink:href="LuaBool.html" xlink:show="new" xlink:title="LuaBool.html" xlink:type="simple"><g id="elem_LuaBool"><rect codeLine="44" fill="#F1F1F1" height="129.4844" id="LuaBool" rx="2.5" ry="2.5" style="stroke:#181818;stroke-width:0.5;" width="171.4346" x="22.5" y="295"/><ellipse cx="76.0288" cy="311" fill="#EB937F" rx="11" ry="11" style="stroke:#181818;stroke-width:1.0;"/><path d="M80.1382,317 L72.4194,317 L72.4194,304.6094 L80.1382,304.6094 L80.1382,306.7656 L74.8726,306.7656 L74.8726,309.4375 L79.6382,309.4375 L79.6382,311.5938 L74.8726,311.5938 L74.8726,314.8438 L80.1382,314.8438 L80.1382,317 Z " fill="#000000"/><text fill="#000000" font-family="sans-serif" font-size="14" lengthAdjust="spacing" textLength="55.877" x="96.5288" y="315.8467">LuaBool</text><line style="stroke:#181818;stroke-width:0.5;" x1="23.5" x2="192.9346" y1="327" y2="327"/><ellipse cx="33.5" cy="340.6484" fill="none" rx="3" ry="3" style="stroke:#038048;stroke-width:1.0;"/><text fill="#000000" font-family="sans-serif" font-size="14" lengthAdjust="spacing" text-decoration="underline" textLength="31.7939" x="42.5" y="343.9951">True</text><ellipse cx="33.5" cy="356.9453" fill="none" rx="3" ry="3" style="stroke:#038048;stroke-width:1.0;"/><text fill="#000000" font-family="sans-serif" font-size="14" lengthAdjust="spacing" text-decoration="underline" textLength="36.4287" x="42.5" y="360.292">False</text><line style="stroke:#181818;stroke-width:0.5;" x1="23.5" x2="192.9346" y1="367.5938" y2="367.5938"/><ellipse cx="33.5" cy="381.2422" fill="#84BE84" rx="3" ry="3" style="stroke:#038048;stroke-width:1.0;"/><text fill="#000000" font-family="sans-serif" font-size="14" lengthAdjust="spacing" textLength="99.0527" x="42.5" y="384.5889">get(): boolean</text><ellipse cx="33.5" cy="397.5391" fill="#84BE84" rx="3" ry="3" style="stroke:#038048;stroke-width:1.0;"/><text fill="#000000" font-family="sans-serif" font-size="14" lengthAdjust="spacing" text-decoration="underline" textLength="145.4346" x="42.5" y="400.8857">of(boolean): LuaBool</text><ellipse cx="33.5" cy="413.8359" fill="#84BE84" rx="3" ry="3" style="stroke:#038048;stroke-width:1.0;"/><text fill="#000000" font-family="sans-serif" font-size="14" lengthAdjust="spacing" textLength="93.1465" x="42.5" y="417.1826">type(): String</text></g></a><!--class LuaString--><a href="LuaString.html" target="_top" title="LuaString.html" xlink:actuate="onRequest" xlink:href="LuaString.html" xlink:show="new" xlink:title="LuaString.html" xlink:type="simple"><g id="elem_LuaString"><rect codeLine="52" fill="#F1F1F1" height="113.1875" id="LuaString" rx="2.5" ry="2.5" style="stroke:#181818;stroke-width:0.5;" width="264.2256" x="599" y="303"/><ellipse cx="693.3462" cy="319" fill="#ADD1B2" rx="11" ry="11" style="stroke:#181818;stroke-width:1.0;"/><path d="M696.3149,324.6406 Q695.7368,324.9375 695.0962,325.0781 Q694.4556,325.2344 693.7524,325.2344 Q691.2524,325.2344 689.9243,323.5938 Q688.6118,321.9375 688.6118,318.8125 Q688.6118,315.6875 689.9243,314.0313 Q691.2524,312.375 693.7524,312.375 Q694.4556,312.375 695.0962,312.5313 Q695.7524,312.6875 696.3149,312.9844 L696.3149,315.7031 Q695.6899,315.125 695.0962,314.8594 Q694.5024,314.5781 693.8774,314.5781 Q692.5337,314.5781 691.8462,315.6563 Q691.1587,316.7188 691.1587,318.8125 Q691.1587,320.9063 691.8462,321.9844 Q692.5337,323.0469 693.8774,323.0469 Q694.5024,323.0469 695.0962,322.7813 Q695.6899,322.5 696.3149,321.9219 L696.3149,324.6406 Z " fill="#000000"/><text fill="#000000" font-family="sans-serif" font-size="14" lengthAdjust="spacing" textLength="67.0332" x="713.8462" y="323.8467">LuaString</text><line style="stroke:#181818;stroke-width:0.5;" x1="600" x2="862.2256" y1="335" y2="335"/><ellipse cx="610" cy="348.6484" fill="none" rx="3" ry="3" style="stroke:#038048;stroke-width:1.0;"/><text fill="#000000" font-family="sans-serif" font-size="14" lengthAdjust="spacing" textLength="89.1885" x="619" y="351.9951">value: String</text><line style="stroke:#181818;stroke-width:0.5;" x1="600" x2="862.2256" y1="359.2969" y2="359.2969"/><ellipse cx="610" cy="372.9453" fill="#84BE84" rx="3" ry="3" style="stroke:#038048;stroke-width:1.0;"/><text fill="#000000" font-family="sans-serif" font-size="14" lengthAdjust="spacing" textLength="238.2256" x="619" y="376.292">concat(LuaConcatable): LuaString</text><ellipse cx="610" cy="389.2422" fill="#84BE84" rx="3" ry="3" style="stroke:#038048;stroke-width:1.0;"/><text fill="#000000" font-family="sans-serif" font-size="14" lengthAdjust="spacing" text-decoration="underline" textLength="142.3994" x="619" y="392.5889">of(String): LuaString</text><ellipse cx="610" cy="405.5391" fill="#84BE84" rx="3" ry="3" style="stroke:#038048;stroke-width:1.0;"/><text fill="#000000" font-family="sans-serif" font-size="14" lengthAdjust="spacing" textLength="93.1465" x="619" y="408.8857">type(): String</text></g></a><!--class SoftFlyweightUtil--><a href="SoftFlyweightUtil.html" target="_top" title="SoftFlyweightUtil.html" xlink:actuate="onRequest" xlink:href="SoftFlyweightUtil.html" xlink:show="new" xlink:title="SoftFlyweightUtil.html" xlink:type="simple"><g id="elem_SoftFlyweightUtil"><rect codeLine="59" fill="#F1F1F1" height="48" id="SoftFlyweightUtil" rx="2.5" ry="2.5" style="stroke:#181818;stroke-width:0.5;" width="150.8154" x="931.5" y="39"/><ellipse cx="946.5" cy="55" fill="#A9DCDF" rx="11" ry="11" style="stroke:#181818;stroke-width:1.0;"/><path d="M946.6094,50.3438 L945.4531,55.4219 L947.7813,55.4219 L946.6094,50.3438 Z M945.125,48.1094 L948.1094,48.1094 L951.4688,60.5 L949.0156,60.5 L948.25,57.4375 L944.9688,57.4375 L944.2188,60.5 L941.7813,60.5 L945.125,48.1094 Z " fill="#000000"/><text fill="#000000" font-family="sans-serif" font-size="14" font-style="italic" lengthAdjust="spacing" textLength="118.8154" x="960.5" y="59.8467">SoftFlyweightUtil</text><line style="stroke:#181818;stroke-width:0.5;" x1="932.5" x2="1081.3154" y1="71" y2="71"/><line style="stroke:#181818;stroke-width:0.5;" x1="932.5" x2="1081.3154" y1="79" y2="79"/></g></a><!--class LuaConcatable--><a href="LuaConcatable.html" target="_top" title="LuaConcatable.html" xlink:actuate="onRequest" xlink:href="LuaConcatable.html" xlink:show="new" xlink:title="LuaConcatable.html" xlink:type="simple"><g id="elem_LuaConcatable"><rect codeLine="62" fill="#F1F1F1" height="64.2969" id="LuaConcatable" rx="2.5" ry="2.5" style="stroke:#181818;stroke-width:0.5;" width="264.2256" x="649" y="31"/><ellipse cx="724.7627" cy="47" fill="#B4A7E5" rx="11" ry="11" style="stroke:#181818;stroke-width:1.0;"/><path d="M720.6846,42.7656 L720.6846,40.6094 L728.0752,40.6094 L728.0752,42.7656 L725.6064,42.7656 L725.6064,50.8438 L728.0752,50.8438 L728.0752,53 L720.6846,53 L720.6846,50.8438 L723.1533,50.8438 L723.1533,42.7656 L720.6846,42.7656 Z " fill="#000000"/><text fill="#000000" font-family="sans-serif" font-size="14" font-style="italic" lengthAdjust="spacing" textLength="104.2002" x="745.2627" y="51.8467">LuaConcatable</text><line style="stroke:#181818;stroke-width:0.5;" x1="650" x2="912.2256" y1="63" y2="63"/><line style="stroke:#181818;stroke-width:0.5;" x1="650" x2="912.2256" y1="71" y2="71"/><ellipse cx="660" cy="84.6484" fill="#84BE84" rx="3" ry="3" style="stroke:#038048;stroke-width:1.0;"/><text fill="#000000" font-family="sans-serif" font-size="14" lengthAdjust="spacing" textLength="238.2256" x="669" y="87.9951">concat(LuaConcatable): LuaString</text></g></a><!--class LuaOptional--><a href="LuaOptional.html" target="_top" title="LuaOptional.html" xlink:actuate="onRequest" xlink:href="LuaOptional.html" xlink:show="new" xlink:title="LuaOptional.html" xlink:type="simple"><g id="elem_LuaOptional"><rect codeLine="66" fill="#F1F1F1" height="64.2969" id="LuaOptional" rx="2.5" ry="2.5" style="stroke:#181818;stroke-width:0.5;" width="332.1543" x="299" y="31"/><ellipse cx="418.605" cy="47" fill="#ADD1B2" rx="11" ry="11" style="stroke:#181818;stroke-width:1.0;"/><path d="M421.5737,52.6406 Q420.9956,52.9375 420.355,53.0781 Q419.7144,53.2344 419.0112,53.2344 Q416.5112,53.2344 415.1831,51.5938 Q413.8706,49.9375 413.8706,46.8125 Q413.8706,43.6875 415.1831,42.0313 Q416.5112,40.375 419.0112,40.375 Q419.7144,40.375 420.355,40.5313 Q421.0112,40.6875 421.5737,40.9844 L421.5737,43.7031 Q420.9487,43.125 420.355,42.8594 Q419.7612,42.5781 419.1362,42.5781 Q417.7925,42.5781 417.105,43.6563 Q416.4175,44.7188 416.4175,46.8125 Q416.4175,48.9063 417.105,49.9844 Q417.7925,51.0469 419.1362,51.0469 Q419.7612,51.0469 420.355,50.7813 Q420.9487,50.5 421.5737,49.9219 L421.5737,52.6406 Z " fill="#000000"/><text fill="#000000" font-family="sans-serif" font-size="14" lengthAdjust="spacing" textLength="84.4443" x="439.105" y="51.8467">LuaOptional</text><line style="stroke:#181818;stroke-width:0.5;" x1="300" x2="630.1543" y1="63" y2="63"/><line style="stroke:#181818;stroke-width:0.5;" x1="300" x2="630.1543" y1="71" y2="71"/><ellipse cx="310" cy="84.6484" fill="#84BE84" rx="3" ry="3" style="stroke:#038048;stroke-width:1.0;"/><text fill="#000000" font-family="sans-serif" font-size="14" lengthAdjust="spacing" text-decoration="underline" textLength="306.1543" x="319" y="87.9951">ofNilable(LuaObject): Optional&lt;LuaObject&gt;</text></g></a><!--class LuaObject--><a href="LuaObject.html" target="_top" title="LuaObject.html" xlink:actuate="onRequest" xlink:href="LuaObject.html" xlink:show="new" xlink:title="LuaObject.html" xlink:type="simple"><g id="elem_LuaObject"><rect codeLine="70" fill="#F1F1F1" height="64.2969" id="LuaObject" rx="2.5" ry="2.5" style="stroke:#181818;stroke-width:0.5;" width="119.1465" x="124.5" y="31"/><ellipse cx="146.8345" cy="47" fill="#B4A7E5" rx="11" ry="11" style="stroke:#181818;stroke-width:1.0;"/><path d="M142.7563,42.7656 L142.7563,40.6094 L150.147,40.6094 L150.147,42.7656 L147.6782,42.7656 L147.6782,50.8438 L150.147,50.8438 L150.147,53 L142.7563,53 L142.7563,50.8438 L145.2251,50.8438 L145.2251,42.7656 L142.7563,42.7656 Z " fill="#000000"/><text fill="#000000" font-family="sans-serif" font-size="14" font-style="italic" lengthAdjust="spacing" textLength="70.8477" x="162.4644" y="51.8467">LuaObject</text><line style="stroke:#181818;stroke-width:0.5;" x1="125.5" x2="242.6465" y1="63" y2="63"/><line style="stroke:#181818;stroke-width:0.5;" x1="125.5" x2="242.6465" y1="71" y2="71"/><ellipse cx="135.5" cy="84.6484" fill="#84BE84" rx="3" ry="3" style="stroke:#038048;stroke-width:1.0;"/><text fill="#000000" font-family="sans-serif" font-size="14" font-style="italic" lengthAdjust="spacing" textLength="93.1465" x="144.5" y="87.9951">type(): String</text></g></a><!--class Comparable--><g id="elem_Comparable"><rect codeLine="77" fill="#F1F1F1" height="64.2969" id="Comparable" rx="2.5" ry="2.5" style="stroke:#181818;stroke-width:0.5;" width="151.7471" x="1107" y="31"/><ellipse cx="1132.4616" cy="47" fill="#B4A7E5" rx="11" ry="11" style="stroke:#181818;stroke-width:1.0;"/><path d="M1128.3835,42.7656 L1128.3835,40.6094 L1135.7741,40.6094 L1135.7741,42.7656 L1133.3054,42.7656 L1133.3054,50.8438 L1135.7741,50.8438 L1135.7741,53 L1128.3835,53 L1128.3835,50.8438 L1130.8522,50.8438 L1130.8522,42.7656 L1128.3835,42.7656 Z " fill="#000000"/><text fill="#000000" font-family="sans-serif" font-size="14" font-style="italic" lengthAdjust="spacing" textLength="85.1689" x="1148.7864" y="51.8467">Comparable</text><rect fill="#FFFFFF" height="15.9688" style="stroke:#181818;stroke-width:1.0;stroke-dasharray:2.0,2.0;" width="9.3301" x="1252.417" y="28"/><text fill="#000000" font-family="sans-serif" font-size="12" font-style="italic" lengthAdjust="spacing" textLength="7.3301" x="1253.417" y="40.1387">T</text><line style="stroke:#181818;stroke-width:0.5;" x1="1108" x2="1257.7471" y1="63" y2="63"/><line style="stroke:#181818;stroke-width:0.5;" x1="1108" x2="1257.7471" y1="71" y2="71"/><ellipse cx="1118" cy="84.6484" fill="#84BE84" rx="3" ry="3" style="stroke:#038048;stroke-width:1.0;"/><text fill="#000000" font-family="sans-serif" font-size="14" font-style="italic" lengthAdjust="spacing" textLength="125.7471" x="1127" y="87.9951">compareTo(T): int</text></g><polygon fill="none" points="206.487,95.2378,212.1337,113.3518,221.8727,106.341,206.487,95.2378" style="stroke:#181818;stroke-width:1.0;"/><path d="M217.0032,109.8464 C224.4627,120.2087 222.9086,118.05 232.8232,131.8227 " fill="none" style="stroke:#181818;stroke-width:1.0;stroke-dasharray:7.0,7.0;"/><polygon fill="none" points="243.6047,89.5851,258.5032,101.3338,262.5727,90.0449,243.6047,89.5851" style="stroke:#181818;stroke-width:1.0;"/><path d="M260.538,95.6894 C275.4323,101.0586 274.6186,99.9185 290,103 C353.4854,115.7187 818.0749,96.1637 872,132 C921.7885,165.0873 949.7733,227.4568 965.0415,278.3832 " fill="none" style="stroke:#181818;stroke-width:1.0;stroke-dasharray:7.0,7.0;"/><polygon fill="none" points="839.5284,95.0372,850.7905,110.307,857.6999,100.4958,839.5284,95.0372" style="stroke:#181818;stroke-width:1.0;"/><path d="M854.2452,105.4014 C861.9371,110.8183 854.631,106.4713 861,113 C906.2923,159.428 937.6856,226.1419 957.125,278.309 " fill="none" style="stroke:#181818;stroke-width:1.0;stroke-dasharray:7.0,7.0;"/><polygon fill="none" points="1161.6798,95.2378,1146.5769,106.7228,1156.4884,113.4875,1161.6798,95.2378" style="stroke:#181818;stroke-width:1.0;"/><path d="M1151.5327,110.1051 C1122.0305,153.3309 1077.8844,218.0127 1036.6731,278.3943 " fill="none" style="stroke:#181818;stroke-width:1.0;stroke-dasharray:7.0,7.0;"/><polygon fill="none" points="175.9386,95.2378,165.6312,111.1676,177.2505,114.1661,175.9386,95.2378" style="stroke:#181818;stroke-width:1.0;"/><path d="M171.4408,112.6668 C159.2352,159.9635 140.3049,233.3184 124.4135,294.8978 " fill="none" style="stroke:#181818;stroke-width:1.0;stroke-dasharray:7.0,7.0;"/><polygon fill="none" points="243.7293,89.0036,258.6146,100.7691,262.6968,89.4848,243.7293,89.0036" style="stroke:#181818;stroke-width:1.0;"/><path d="M260.6557,95.1269 C275.5463,100.5138 274.7065,99.5084 290,103 C355.2973,117.9078 533.0821,96.6967 590,132 C652.7838,170.9416 692.0675,249.2828 712.7626,302.8113 " fill="none" style="stroke:#181818;stroke-width:1.0;stroke-dasharray:7.0,7.0;"/><polygon fill="none" points="775.6965,95.2378,766.7682,111.9796,778.5989,113.9882,775.6965,95.2378" style="stroke:#181818;stroke-width:1.0;"/><path d="M772.6835,112.9839 C764.3017,162.3531 750.8883,241.3579 740.4536,302.8184 " fill="none" style="stroke:#181818;stroke-width:1.0;stroke-dasharray:7.0,7.0;"/><polygon fill="#181818" points="243.79,71.7891,253.1799,74.7606,248.7589,71.2316,252.2879,66.8105,243.79,71.7891" style="stroke:#181818;stroke-width:1.0;"/><path d="M243.79,54.2109 C254.2344,55.3828 261.5,58.3125 261.5,63 C261.5,67.6875 260.197,69.9482 249.7526,71.12 " fill="none" style="stroke:#181818;stroke-width:1.0;"/><text fill="#000000" font-family="sans-serif" font-size="13" lengthAdjust="spacing" textLength="15.4629" x="263.5" y="67.5669">nil</text><text fill="#888888" font-family="sans-serif" font-size="10" lengthAdjust="spacing" textLength="3.1787" x="627.4106" y="606.2822">&#160;</text><text fill="#888888" font-family="sans-serif" font-size="10" lengthAdjust="spacing" textLength="183.0908" x="537.4546" y="617.9229">UMLDoclet 2.2.0, PlantUML 1.2024.6</text><!--SRC=[dLPBRvj04BxdLsmFbHmve2f75FcGH94gfKdKEBsqEOpnc6ooi6XtSUEc_kyTM31WMB3BmHxORrxVF80nnZwb2g8Oc82Dp0pJCHf8u8HEc4QwnnGK6AbO49mKJrC8to125ihOrob4liY0VTYp_0e5QCrkCvZ3GY3x-RCI_HSJY-TdmhB6zQ4D61vksNIX8CG7C06Z7uCgSU2IB3u0fOtYING0aCB_0IB3xnZXUy0U2pq7bYTBVCVbcCattBX0Kvu2LtfooQzaehCOrGNnSvV5PpbbzujN3CtiD61hoPTjnJuzYnzL9IuGuibfaHr9jUfituS28L0y7ghWUH4QpvjOrWY_0xPnX9hiZjmmpqkpsbmZBxSAAKpwcEWbWYSQLJkI8L2xBBtWYW2U3AO5ooM1nanP59aQzwem5JGkVN1749h_mRoYX6yVK2z5EAccr1eeH4Ttj_5dx73DbPAnBMshORegKxD9iMo_vZHkUzOC5Sak6HBwLynqdSztm2vvT8qXZq4uufEhLbnaq0riqhqFd7BzDJ6qJrIUmq9AWR2_1lI3rDpmDJeX3WwACrg-DAiubsMRxjMrmHFIkinZl2GNbgTS6jl5SvMvYdW3GcDtkXrPj3Wh0PQqF8p_Bhg5s7oiF5pwVWwJ48evlogakeS7tm5xJT9dUJmHMD1EXj2K6JtAbRaHcz_8enVpP7XUgSwpReODWrHzL2lQ2AoLZsMeldUmT30LVRMuJmsN2PJTLTsDTPXStN6H-sbjnKgxxuNZojRYIk-5xF1TaRuTgz2s_QNp2clm1L2_VVH4S5MCOfx9nNmsuB8UsNbdMXjEcvzLGL2dT_7Nzxk7zUeyJg_QM9s3HkiCQ-v82OAQWMEz3SQuMn37gJLAUdnsGygbLy-RkSu2bl0oPCpxWwsapFz-9K_VRgzbAEY3-jm_zx-SiGUYpj1JzdcDIbFFJqx_0G00]--></g></svg>